<svg width="0" height="0" class="hidden">
    <symbol xmlns="http://www.w3.org/2000/svg" viewBox="0 0 22 22" id="united-kingdom">
        <g clip-path="url(#clip0_7_963)">
            <path d="M11.3696 21.9816C17.2273 21.9816 21.976 17.2329 21.976 11.3752C21.976 5.51744 17.2273 0.768799 11.3696 0.768799C5.51183 0.768799 0.763184 5.51744 0.763184 11.3752C0.763184 17.2329 5.51183 21.9816 11.3696 21.9816Z"
                  fill="#F0F0F0"></path>
            <path d="M2.95558 4.91782C2.12244 6.00178 1.49421 7.25114 1.12842 8.60838H6.64614L2.95558 4.91782Z"
                  fill="#0052B4"></path>
            <path d="M21.6104 8.60837C21.2446 7.25117 20.6164 6.00181 19.7833 4.91785L16.0928 8.60837H21.6104Z"
                  fill="#0052B4"></path>
            <path d="M1.12842 14.1422C1.49426 15.4994 2.12248 16.7487 2.95558 17.8326L6.64602 14.1422H1.12842Z"
                  fill="#0052B4"></path>
            <path d="M17.8268 2.96139C16.7428 2.12824 15.4935 1.50002 14.1362 1.13419V6.65187L17.8268 2.96139Z"
                  fill="#0052B4"></path>
            <path d="M4.91211 19.789C5.99607 20.6222 7.24543 21.2504 8.60264 21.6162V16.0986L4.91211 19.789Z"
                  fill="#0052B4"></path>
            <path d="M8.6026 1.13419C7.24539 1.50002 5.99603 2.12824 4.91211 2.96134L8.6026 6.65183V1.13419Z"
                  fill="#0052B4"></path>
            <path d="M14.1362 21.6162C15.4934 21.2504 16.7428 20.6222 17.8267 19.7891L14.1362 16.0986V21.6162Z"
                  fill="#0052B4"></path>
            <path d="M16.0928 14.1422L19.7833 17.8327C20.6164 16.7488 21.2446 15.4994 21.6104 14.1422H16.0928Z"
                  fill="#0052B4"></path>
            <path d="M21.8862 9.99176H12.7531H12.753V0.85858C12.3002 0.799624 11.8385 0.768799 11.3696 0.768799C10.9006 0.768799 10.439 0.799624 9.98615 0.85858V9.99168V9.99172H0.852965C0.794008 10.4446 0.763184 10.9063 0.763184 11.3752C0.763184 11.8441 0.794008 12.3058 0.852965 12.7586H9.98606H9.9861V21.8918C10.439 21.9508 10.9006 21.9816 11.3696 21.9816C11.8385 21.9816 12.3002 21.9508 12.753 21.8918V12.7587V12.7587H21.8862C21.9451 12.3058 21.976 11.8441 21.976 11.3752C21.976 10.9063 21.9451 10.4446 21.8862 9.99176Z"
                  fill="#D80027"></path>
            <path d="M14.1365 14.1421L18.8694 18.8751C19.0871 18.6575 19.2947 18.43 19.4929 18.1942L15.4408 14.1421H14.1365V14.1421Z"
                  fill="#D80027"></path>
            <path d="M8.6026 14.1422H8.60252L3.86963 18.875C4.08723 19.0927 4.31472 19.3004 4.55055 19.4985L8.6026 15.4464V14.1422Z"
                  fill="#D80027"></path>
            <path d="M8.60249 8.60839V8.60831L3.86955 3.87534C3.65187 4.09293 3.44422 4.32043 3.24609 4.55626L7.29819 8.60835H8.60249V8.60839Z"
                  fill="#D80027"></path>
            <path d="M14.1365 8.60839L18.8695 3.87537C18.6519 3.65769 18.4244 3.45004 18.1885 3.25195L14.1365 7.30405V8.60839Z"
                  fill="#D80027"></path>
        </g>
        <defs>
            <clipPath id="clip0_7_963">
                <rect  fill="white" transform="translate(0.763184 0.768799)"></rect>
            </clipPath>
        </defs>
    </symbol>

    <symbol xmlns="http://www.w3.org/2000/svg" viewBox="0 0 11 8" id="arrow-down">
        <path d="M1.93933 0.58513C1.59066 0.156826 0.960791 0.0922732 0.532487 0.440948C0.104183 0.789622 0.0396304 1.41949 0.388305 1.84779L1.93933 0.58513ZM5.54199 6.59451L4.76648 7.22584C4.95638 7.45912 5.2412 7.59451 5.542 7.59451C5.8428 7.59451 6.12761 7.45911 6.31751 7.22583L5.54199 6.59451ZM10.6956 1.84778C11.0442 1.41947 10.9797 0.789608 10.5514 0.440939C10.1231 0.0922705 9.49319 0.156832 9.14452 0.585141L10.6956 1.84778ZM0.388305 1.84779L4.76648 7.22584L6.31751 5.96318L1.93933 0.58513L0.388305 1.84779ZM6.31751 7.22583L10.6956 1.84778L9.14452 0.585141L4.76647 5.96319L6.31751 7.22583Z"
              ></path>
    </symbol>
</svg>
