<svg width="0" height="0" class="hidden">
    <symbol xmlns="http://www.w3.org/2000/svg" viewBox="0 0 22 22" id="united-kingdom">
        <g clip-path="url(#clip0_7_963)">
            <path d="M11.3696 21.9816C17.2273 21.9816 21.976 17.2329 21.976 11.3752C21.976 5.51744 17.2273 0.768799 11.3696 0.768799C5.51183 0.768799 0.763184 5.51744 0.763184 11.3752C0.763184 17.2329 5.51183 21.9816 11.3696 21.9816Z"
                  fill="#F0F0F0"></path>
            <path d="M2.95558 4.91782C2.12244 6.00178 1.49421 7.25114 1.12842 8.60838H6.64614L2.95558 4.91782Z"
                  fill="#0052B4"></path>
            <path d="M21.6104 8.60837C21.2446 7.25117 20.6164 6.00181 19.7833 4.91785L16.0928 8.60837H21.6104Z"
                  fill="#0052B4"></path>
            <path d="M1.12842 14.1422C1.49426 15.4994 2.12248 16.7487 2.95558 17.8326L6.64602 14.1422H1.12842Z"
                  fill="#0052B4"></path>
            <path d="M17.8268 2.96139C16.7428 2.12824 15.4935 1.50002 14.1362 1.13419V6.65187L17.8268 2.96139Z"
                  fill="#0052B4"></path>
            <path d="M4.91211 19.789C5.99607 20.6222 7.24543 21.2504 8.60264 21.6162V16.0986L4.91211 19.789Z"
                  fill="#0052B4"></path>
            <path d="M8.6026 1.13419C7.24539 1.50002 5.99603 2.12824 4.91211 2.96134L8.6026 6.65183V1.13419Z"
                  fill="#0052B4"></path>
            <path d="M14.1362 21.6162C15.4934 21.2504 16.7428 20.6222 17.8267 19.7891L14.1362 16.0986V21.6162Z"
                  fill="#0052B4"></path>
            <path d="M16.0928 14.1422L19.7833 17.8327C20.6164 16.7488 21.2446 15.4994 21.6104 14.1422H16.0928Z"
                  fill="#0052B4"></path>
            <path d="M21.8862 9.99176H12.7531H12.753V0.85858C12.3002 0.799624 11.8385 0.768799 11.3696 0.768799C10.9006 0.768799 10.439 0.799624 9.98615 0.85858V9.99168V9.99172H0.852965C0.794008 10.4446 0.763184 10.9063 0.763184 11.3752C0.763184 11.8441 0.794008 12.3058 0.852965 12.7586H9.98606H9.9861V21.8918C10.439 21.9508 10.9006 21.9816 11.3696 21.9816C11.8385 21.9816 12.3002 21.9508 12.753 21.8918V12.7587V12.7587H21.8862C21.9451 12.3058 21.976 11.8441 21.976 11.3752C21.976 10.9063 21.9451 10.4446 21.8862 9.99176Z"
                  fill="#D80027"></path>
            <path d="M14.1365 14.1421L18.8694 18.8751C19.0871 18.6575 19.2947 18.43 19.4929 18.1942L15.4408 14.1421H14.1365V14.1421Z"
                  fill="#D80027"></path>
            <path d="M8.6026 14.1422H8.60252L3.86963 18.875C4.08723 19.0927 4.31472 19.3004 4.55055 19.4985L8.6026 15.4464V14.1422Z"
                  fill="#D80027"></path>
            <path d="M8.60249 8.60839V8.60831L3.86955 3.87534C3.65187 4.09293 3.44422 4.32043 3.24609 4.55626L7.29819 8.60835H8.60249V8.60839Z"
                  fill="#D80027"></path>
            <path d="M14.1365 8.60839L18.8695 3.87537C18.6519 3.65769 18.4244 3.45004 18.1885 3.25195L14.1365 7.30405V8.60839Z"
                  fill="#D80027"></path>
        </g>
        <defs>
            <clipPath id="clip0_7_963">
                <rect fill="white" transform="translate(0.763184 0.768799)"></rect>
            </clipPath>
        </defs>
    </symbol>

    <symbol xmlns="http://www.w3.org/2000/svg" viewBox="0 0 11 8" id="arrow-down">
        <path d="M1.93933 0.58513C1.59066 0.156826 0.960791 0.0922732 0.532487 0.440948C0.104183 0.789622 0.0396304 1.41949 0.388305 1.84779L1.93933 0.58513ZM5.54199 6.59451L4.76648 7.22584C4.95638 7.45912 5.2412 7.59451 5.542 7.59451C5.8428 7.59451 6.12761 7.45911 6.31751 7.22583L5.54199 6.59451ZM10.6956 1.84778C11.0442 1.41947 10.9797 0.789608 10.5514 0.440939C10.1231 0.0922705 9.49319 0.156832 9.14452 0.585141L10.6956 1.84778ZM0.388305 1.84779L4.76648 7.22584L6.31751 5.96318L1.93933 0.58513L0.388305 1.84779ZM6.31751 7.22583L10.6956 1.84778L9.14452 0.585141L4.76647 5.96319L6.31751 7.22583Z"
        ></path>
    </symbol>

    <symbol xmlns="http://www.w3.org/2000/svg" viewBox="0 0 40 35" id="cross">
        <path opacity="0.3"
              d="M35.6823 1.27952C29.7823 2.67952 25.3823 8.17952 20.7823 11.7795C20.4823 12.0795 20.0823 12.2795 19.7823 12.5795C16.4823 8.97952 12.8823 5.57952 9.58232 1.97952C6.78232 -1.02048 1.88232 3.37952 4.28232 6.67952C7.08232 10.4795 10.6823 13.6795 14.1823 17.0795C9.88232 20.4795 5.58232 24.0795 1.58232 27.7795C-0.41768 28.6795 0.98232 32.8795 3.58232 31.3795C8.68232 28.3795 13.5823 24.8795 18.3823 21.2795C22.7823 26.2795 27.3823 31.1795 33.5823 33.8795C35.6823 34.7795 37.5823 32.1795 35.7823 30.5795C31.3823 26.5795 27.6823 21.8795 23.8823 17.2795C28.5823 13.7795 32.8823 10.0795 38.1823 7.37952C41.5823 5.57952 39.2823 0.479521 35.6823 1.27952Z"
        ></path>
    </symbol>

    <symbol xmlns="http://www.w3.org/2000/svg" viewBox="0 0 71 71" id="russia">
        <g clip-path="url(#clip0_7_78)">
            <path d="M35.4097 70.598C54.7396 70.598 70.4097 54.9279 70.4097 35.598C70.4097 16.268 54.7396 0.597961 35.4097 0.597961C16.0797 0.597961 0.409668 16.268 0.409668 35.598C0.409668 54.9279 16.0797 70.598 35.4097 70.598Z"
                  fill="#F0F0F0"></path>
            <path d="M68.2327 47.7718C69.6397 43.9802 70.4097 39.8792 70.4097 35.598C70.4097 31.3168 69.6397 27.2157 68.2327 23.4241H2.58664C1.1798 27.2157 0.409668 31.3168 0.409668 35.598C0.409668 39.8792 1.1798 43.9802 2.58664 47.7718L35.4097 50.8153L68.2327 47.7718Z"
                  fill="#0052B4"></path>
            <path d="M35.4097 70.598C50.4585 70.598 63.2875 61.0998 68.2327 47.7718H2.58667C7.53192 61.0998 20.3609 70.598 35.4097 70.598Z"
                  fill="#D80027"></path>
        </g>
        <defs>
            <clipPath id="clip0_7_78">
                <rect width="70" height="70" fill="white" transform="translate(0.409668 0.597961)"></rect>
            </clipPath>
        </defs>
    </symbol>

    <symbol xmlns="http://www.w3.org/2000/svg" viewBox="0 0 68 68" id="telegram">
        <path d="M33.9566 63.9774C50.4715 63.9774 63.8593 50.5895 63.8593 34.0747C63.8593 17.5599 50.4715 4.172 33.9566 4.172C17.4418 4.172 4.05396 17.5599 4.05396 34.0747C4.05396 50.5895 17.4418 63.9774 33.9566 63.9774Z"
              fill="#41B4E6" stroke="#ECEFF1" stroke-width="7"></path>
        <path d="M60.3601 34.0747C60.3601 33.4313 60.3358 32.7938 60.2906 32.1619L49.3479 21.2194L18.5662 33.3276L30.3434 45.105L30.4979 45.6611L30.6979 45.4594L30.6988 45.4603L30.4979 45.6611L43.5259 58.689C53.3775 54.8564 60.3601 45.2815 60.3601 34.0747Z"
              fill="#0091C8"></path>
        <path d="M31.3927 37.9214L43.3247 46.9301L49.3478 21.2194L18.5659 33.3276L27.9325 36.43L45.0267 24.9637L31.3927 37.9214Z"
              fill="white"></path>
        <path d="M27.9326 36.43L30.4979 45.6612L31.3929 37.9214L45.0268 24.9637L27.9326 36.43Z" fill="#D2D2D7"></path>
        <path d="M35.2707 40.8492L30.4978 45.6612L31.3927 37.9214L35.2707 40.8492Z" fill="#B9B9BE"></path>
    </symbol>

    <symbol xmlns="http://www.w3.org/2000/svg" viewBox="0 0 65 64" id="whatsapp">
        <g clip-path="url(#clip0_7_943)">
            <path d="M55.0544 9.93733C49.0455 4.18205 41.1391 0.931 32.7188 0.931C8.55157 0.931 -6.62344 26.8741 5.44436 47.5111L0.974609 63.6019L17.6703 59.288C24.9442 63.1815 30.9029 62.8368 32.7346 63.0666C60.7575 63.0666 74.707 29.475 55.0148 10.0392L55.0544 9.93733Z"
                  fill="#ECEFF1"></path>
            <path d="M32.7768 57.7291L32.7609 57.7265H32.7188C24.3327 57.7265 18.9748 53.7913 18.4477 53.5641L8.56473 56.1101L11.2134 46.592L10.5835 45.6127C7.97439 41.4973 6.58813 36.7578 6.58813 31.8774C6.58813 8.91631 34.9062 -2.56552 51.2935 13.6636C67.6413 29.723 56.1639 57.7291 32.7768 57.7291Z"
                  fill="#4CAF50"></path>
            <path d="M47.1136 38.2907L47.0899 38.4865C46.2966 38.0948 42.4331 36.2225 41.7136 35.964C40.098 35.3713 40.554 35.87 37.452 39.39C36.9908 39.8992 36.5323 39.9384 35.7495 39.5859C34.9589 39.1942 32.4209 38.3716 29.4165 35.7081C27.0762 33.6321 25.5055 31.0861 25.0416 30.3027C24.2694 28.9814 25.885 28.7934 27.3556 26.0359C27.6191 25.4875 27.4847 25.0567 27.2897 24.6676C27.092 24.2759 25.5186 20.4373 24.8598 18.9071C24.2273 17.3821 23.5763 17.5753 23.0887 17.5753C21.5707 17.4448 20.4612 17.4657 19.4834 18.4736C15.2298 23.106 16.3024 27.8847 19.942 32.9663C27.0947 42.2415 30.9055 43.9493 37.8737 46.3204C39.7554 46.9131 41.4711 46.8296 42.8284 46.6363C44.3411 46.3987 47.4852 44.7536 48.1415 42.9126C48.8135 41.0717 48.8135 39.5441 48.6159 39.1916C48.4208 38.839 47.9043 38.6432 47.1136 38.2907Z"
                  fill="#FAFAFA"></path>
        </g>
        <defs>
            <clipPath id="clip0_7_943">
                <rect width="63.2512" height="62.6709" fill="white" transform="translate(0.974609 0.931)"></rect>
            </clipPath>
        </defs>
    </symbol>


</svg>
