<svg width="0" height="0" class="hidden">
    <symbol xmlns="http://www.w3.org/2000/svg" viewBox="0 0 22 22" id="united-kingdom">
        <g clip-path="url(#clip0_7_963)">
            <path d="M11.3696 21.9816C17.2273 21.9816 21.976 17.2329 21.976 11.3752C21.976 5.51744 17.2273 0.768799 11.3696 0.768799C5.51183 0.768799 0.763184 5.51744 0.763184 11.3752C0.763184 17.2329 5.51183 21.9816 11.3696 21.9816Z"
                  fill="#F0F0F0"></path>
            <path d="M2.95558 4.91782C2.12244 6.00178 1.49421 7.25114 1.12842 8.60838H6.64614L2.95558 4.91782Z"
                  fill="#0052B4"></path>
            <path d="M21.6104 8.60837C21.2446 7.25117 20.6164 6.00181 19.7833 4.91785L16.0928 8.60837H21.6104Z"
                  fill="#0052B4"></path>
            <path d="M1.12842 14.1422C1.49426 15.4994 2.12248 16.7487 2.95558 17.8326L6.64602 14.1422H1.12842Z"
                  fill="#0052B4"></path>
            <path d="M17.8268 2.96139C16.7428 2.12824 15.4935 1.50002 14.1362 1.13419V6.65187L17.8268 2.96139Z"
                  fill="#0052B4"></path>
            <path d="M4.91211 19.789C5.99607 20.6222 7.24543 21.2504 8.60264 21.6162V16.0986L4.91211 19.789Z"
                  fill="#0052B4"></path>
            <path d="M8.6026 1.13419C7.24539 1.50002 5.99603 2.12824 4.91211 2.96134L8.6026 6.65183V1.13419Z"
                  fill="#0052B4"></path>
            <path d="M14.1362 21.6162C15.4934 21.2504 16.7428 20.6222 17.8267 19.7891L14.1362 16.0986V21.6162Z"
                  fill="#0052B4"></path>
            <path d="M16.0928 14.1422L19.7833 17.8327C20.6164 16.7488 21.2446 15.4994 21.6104 14.1422H16.0928Z"
                  fill="#0052B4"></path>
            <path d="M21.8862 9.99176H12.7531H12.753V0.85858C12.3002 0.799624 11.8385 0.768799 11.3696 0.768799C10.9006 0.768799 10.439 0.799624 9.98615 0.85858V9.99168V9.99172H0.852965C0.794008 10.4446 0.763184 10.9063 0.763184 11.3752C0.763184 11.8441 0.794008 12.3058 0.852965 12.7586H9.98606H9.9861V21.8918C10.439 21.9508 10.9006 21.9816 11.3696 21.9816C11.8385 21.9816 12.3002 21.9508 12.753 21.8918V12.7587V12.7587H21.8862C21.9451 12.3058 21.976 11.8441 21.976 11.3752C21.976 10.9063 21.9451 10.4446 21.8862 9.99176Z"
                  fill="#D80027"></path>
            <path d="M14.1365 14.1421L18.8694 18.8751C19.0871 18.6575 19.2947 18.43 19.4929 18.1942L15.4408 14.1421H14.1365V14.1421Z"
                  fill="#D80027"></path>
            <path d="M8.6026 14.1422H8.60252L3.86963 18.875C4.08723 19.0927 4.31472 19.3004 4.55055 19.4985L8.6026 15.4464V14.1422Z"
                  fill="#D80027"></path>
            <path d="M8.60249 8.60839V8.60831L3.86955 3.87534C3.65187 4.09293 3.44422 4.32043 3.24609 4.55626L7.29819 8.60835H8.60249V8.60839Z"
                  fill="#D80027"></path>
            <path d="M14.1365 8.60839L18.8695 3.87537C18.6519 3.65769 18.4244 3.45004 18.1885 3.25195L14.1365 7.30405V8.60839Z"
                  fill="#D80027"></path>
        </g>
        <defs>
            <clipPath id="clip0_7_963">
                <rect fill="white" transform="translate(0.763184 0.768799)"></rect>
            </clipPath>
        </defs>
    </symbol>

    <symbol xmlns="http://www.w3.org/2000/svg" viewBox="0 0 11 8" id="arrow">
        <path d="M1.93933 0.58513C1.59066 0.156826 0.960791 0.0922732 0.532487 0.440948C0.104183 0.789622 0.0396304 1.41949 0.388305 1.84779L1.93933 0.58513ZM5.54199 6.59451L4.76648 7.22584C4.95638 7.45912 5.2412 7.59451 5.542 7.59451C5.8428 7.59451 6.12761 7.45911 6.31751 7.22583L5.54199 6.59451ZM10.6956 1.84778C11.0442 1.41947 10.9797 0.789608 10.5514 0.440939C10.1231 0.0922705 9.49319 0.156832 9.14452 0.585141L10.6956 1.84778ZM0.388305 1.84779L4.76648 7.22584L6.31751 5.96318L1.93933 0.58513L0.388305 1.84779ZM6.31751 7.22583L10.6956 1.84778L9.14452 0.585141L4.76647 5.96319L6.31751 7.22583Z"
        ></path>
    </symbol>

    <symbol xmlns="http://www.w3.org/2000/svg" viewBox="0 0 40 35" id="cross">
        <path opacity="0.3"
              d="M35.6823 1.27952C29.7823 2.67952 25.3823 8.17952 20.7823 11.7795C20.4823 12.0795 20.0823 12.2795 19.7823 12.5795C16.4823 8.97952 12.8823 5.57952 9.58232 1.97952C6.78232 -1.02048 1.88232 3.37952 4.28232 6.67952C7.08232 10.4795 10.6823 13.6795 14.1823 17.0795C9.88232 20.4795 5.58232 24.0795 1.58232 27.7795C-0.41768 28.6795 0.98232 32.8795 3.58232 31.3795C8.68232 28.3795 13.5823 24.8795 18.3823 21.2795C22.7823 26.2795 27.3823 31.1795 33.5823 33.8795C35.6823 34.7795 37.5823 32.1795 35.7823 30.5795C31.3823 26.5795 27.6823 21.8795 23.8823 17.2795C28.5823 13.7795 32.8823 10.0795 38.1823 7.37952C41.5823 5.57952 39.2823 0.479521 35.6823 1.27952Z"
        ></path>
    </symbol>

    <symbol xmlns="http://www.w3.org/2000/svg" viewBox="0 0 71 71" id="russia">
        <g clip-path="url(#clip0_7_78)">
            <path d="M35.4097 70.598C54.7396 70.598 70.4097 54.9279 70.4097 35.598C70.4097 16.268 54.7396 0.597961 35.4097 0.597961C16.0797 0.597961 0.409668 16.268 0.409668 35.598C0.409668 54.9279 16.0797 70.598 35.4097 70.598Z"
                  fill="#F0F0F0"></path>
            <path d="M68.2327 47.7718C69.6397 43.9802 70.4097 39.8792 70.4097 35.598C70.4097 31.3168 69.6397 27.2157 68.2327 23.4241H2.58664C1.1798 27.2157 0.409668 31.3168 0.409668 35.598C0.409668 39.8792 1.1798 43.9802 2.58664 47.7718L35.4097 50.8153L68.2327 47.7718Z"
                  fill="#0052B4"></path>
            <path d="M35.4097 70.598C50.4585 70.598 63.2875 61.0998 68.2327 47.7718H2.58667C7.53192 61.0998 20.3609 70.598 35.4097 70.598Z"
                  fill="#D80027"></path>
        </g>
        <defs>
            <clipPath id="clip0_7_78">
                <rect width="70" height="70" fill="white" transform="translate(0.409668 0.597961)"></rect>
            </clipPath>
        </defs>
    </symbol>

    <symbol xmlns="http://www.w3.org/2000/svg" viewBox="0 0 68 68" id="telegram">
        <path d="M33.9566 63.9774C50.4715 63.9774 63.8593 50.5895 63.8593 34.0747C63.8593 17.5599 50.4715 4.172 33.9566 4.172C17.4418 4.172 4.05396 17.5599 4.05396 34.0747C4.05396 50.5895 17.4418 63.9774 33.9566 63.9774Z"
              fill="#41B4E6" stroke="#ECEFF1" stroke-width="7"></path>
        <path d="M60.3601 34.0747C60.3601 33.4313 60.3358 32.7938 60.2906 32.1619L49.3479 21.2194L18.5662 33.3276L30.3434 45.105L30.4979 45.6611L30.6979 45.4594L30.6988 45.4603L30.4979 45.6611L43.5259 58.689C53.3775 54.8564 60.3601 45.2815 60.3601 34.0747Z"
              fill="#0091C8"></path>
        <path d="M31.3927 37.9214L43.3247 46.9301L49.3478 21.2194L18.5659 33.3276L27.9325 36.43L45.0267 24.9637L31.3927 37.9214Z"
              fill="white"></path>
        <path d="M27.9326 36.43L30.4979 45.6612L31.3929 37.9214L45.0268 24.9637L27.9326 36.43Z" fill="#D2D2D7"></path>
        <path d="M35.2707 40.8492L30.4978 45.6612L31.3927 37.9214L35.2707 40.8492Z" fill="#B9B9BE"></path>
    </symbol>

    <symbol xmlns="http://www.w3.org/2000/svg" viewBox="0 0 65 64" id="whatsapp">
        <g clip-path="url(#clip0_7_943)">
            <path d="M55.0544 9.93733C49.0455 4.18205 41.1391 0.931 32.7188 0.931C8.55157 0.931 -6.62344 26.8741 5.44436 47.5111L0.974609 63.6019L17.6703 59.288C24.9442 63.1815 30.9029 62.8368 32.7346 63.0666C60.7575 63.0666 74.707 29.475 55.0148 10.0392L55.0544 9.93733Z"
                  fill="#ECEFF1"></path>
            <path d="M32.7768 57.7291L32.7609 57.7265H32.7188C24.3327 57.7265 18.9748 53.7913 18.4477 53.5641L8.56473 56.1101L11.2134 46.592L10.5835 45.6127C7.97439 41.4973 6.58813 36.7578 6.58813 31.8774C6.58813 8.91631 34.9062 -2.56552 51.2935 13.6636C67.6413 29.723 56.1639 57.7291 32.7768 57.7291Z"
                  fill="#4CAF50"></path>
            <path d="M47.1136 38.2907L47.0899 38.4865C46.2966 38.0948 42.4331 36.2225 41.7136 35.964C40.098 35.3713 40.554 35.87 37.452 39.39C36.9908 39.8992 36.5323 39.9384 35.7495 39.5859C34.9589 39.1942 32.4209 38.3716 29.4165 35.7081C27.0762 33.6321 25.5055 31.0861 25.0416 30.3027C24.2694 28.9814 25.885 28.7934 27.3556 26.0359C27.6191 25.4875 27.4847 25.0567 27.2897 24.6676C27.092 24.2759 25.5186 20.4373 24.8598 18.9071C24.2273 17.3821 23.5763 17.5753 23.0887 17.5753C21.5707 17.4448 20.4612 17.4657 19.4834 18.4736C15.2298 23.106 16.3024 27.8847 19.942 32.9663C27.0947 42.2415 30.9055 43.9493 37.8737 46.3204C39.7554 46.9131 41.4711 46.8296 42.8284 46.6363C44.3411 46.3987 47.4852 44.7536 48.1415 42.9126C48.8135 41.0717 48.8135 39.5441 48.6159 39.1916C48.4208 38.839 47.9043 38.6432 47.1136 38.2907Z"
                  fill="#FAFAFA"></path>
        </g>
        <defs>
            <clipPath id="clip0_7_943">
                <rect width="63.2512" height="62.6709" fill="white" transform="translate(0.974609 0.931)"></rect>
            </clipPath>
        </defs>
    </symbol>

    <symbol xmlns="http://www.w3.org/2000/svg" viewBox="0 0 64 91" id="question">
        <circle cx="31.5902" cy="44.1209" r="31.5704" fill="#3F92D1"></circle>
        <path d="M26.1683 52.5607C26.1683 49.7092 26.4906 47.4631 27.1351 45.8224C27.7797 44.1623 28.8246 42.7267 30.2699 41.5158C31.7152 40.3049 32.809 39.2014 33.5511 38.2053C34.3129 37.1896 34.6937 36.0764 34.6937 34.8654C34.6937 31.9162 33.4242 30.4416 30.8851 30.4416C29.7133 30.4416 28.766 30.8713 28.0433 31.7307C27.3207 32.59 26.9398 33.7521 26.9008 35.217H16.9984C17.0375 31.3107 18.2679 28.2736 20.6898 26.1057C23.1117 23.9182 26.5101 22.8244 30.8851 22.8244C35.2406 22.8244 38.6097 23.8303 40.9926 25.842C43.3949 27.8537 44.5961 30.715 44.5961 34.426C44.5961 36.0471 44.2738 37.5217 43.6293 38.8498C42.9847 40.1779 41.9496 41.5353 40.5238 42.9221L37.1547 46.0568C36.1976 46.9748 35.5336 47.9221 35.1625 48.8986C34.7914 49.8557 34.5863 51.0764 34.5472 52.5607H26.1683ZM24.9672 61.467C24.9672 60.0217 25.4847 58.84 26.5199 57.9221C27.5746 56.9846 28.8832 56.5158 30.4457 56.5158C32.0082 56.5158 33.307 56.9846 34.3422 57.9221C35.3969 58.84 35.9242 60.0217 35.9242 61.467C35.9242 62.9123 35.3969 64.1037 34.3422 65.0412C33.307 65.9592 32.0082 66.4182 30.4457 66.4182C28.8832 66.4182 27.5746 65.9592 26.5199 65.0412C25.4847 64.1037 24.9672 62.9123 24.9672 61.467Z"
              fill="white"></path>
    </symbol>

    <symbol xmlns="http://www.w3.org/2000/svg" viewBox="0 0 64 91" id="answer">
        <circle cx="31.7804" cy="44.0606" r="31.5704" fill="#4CAF50"></circle>
        <path d="M35.8486 52.5004H27.8506L26.5908 23.35H37.1084L35.8486 52.5004ZM26.2979 61.5825C26.2979 60.1371 26.8154 58.9555 27.8506 58.0375C28.9053 57.1 30.2139 56.6313 31.7764 56.6313C33.3389 56.6313 34.6377 57.1 35.6729 58.0375C36.7275 58.9555 37.2549 60.1371 37.2549 61.5825C37.2549 63.0278 36.7275 64.2192 35.6729 65.1567C34.6377 66.0746 33.3389 66.5336 31.7764 66.5336C30.2139 66.5336 28.9053 66.0746 27.8506 65.1567C26.8154 64.2192 26.2979 63.0278 26.2979 61.5825Z"
              fill="white"></path>
    </symbol>

    <symbol xmlns="http://www.w3.org/2000/svg" viewBox="0 0 268 141" id="airplane">
        <g clip-path="url(#clip0_4016_18)">
            <path d="M95.0727 94.2865C95.3993 94.2439 95.7117 94.0925 95.6549 93.6571C95.6928 93.0986 95.7166 92.4312 95.6456 91.8869C96.7013 88.0959 97.5393 84.3333 98.6092 80.6511C99.7975 76.1786 100.957 71.4883 101.355 66.8974C101.573 66.869 101.777 66.7318 101.857 66.4999C104.532 59.8408 110.278 54.6634 111.438 47.4268C111.571 46.7453 110.534 46.4375 110.278 47.0244C110.155 46.9297 110.032 46.8351 109.909 46.7404C105.886 45.6042 101.65 45.3814 97.509 45.0356C93.0412 44.7324 88.6254 43.9795 84.1149 43.3497C74.8479 41.9008 65.5809 40.4518 56.3565 39.3294C53.7676 39.0027 51.2876 38.6617 48.7129 38.4438C48.8075 38.3208 48.9164 38.3066 49.011 38.1835C49.5128 37.786 48.978 37.0808 48.4621 37.3694C48.0408 37.5351 47.6338 37.8095 47.1179 38.0982C46.886 38.0177 46.5594 38.0603 46.3275 37.9798C46.8292 37.5823 47.3309 37.1848 47.7096 36.6926C47.9936 36.3234 47.4872 35.8359 47.0802 36.1104C46.266 36.6593 45.5608 37.1941 44.7609 37.8519C39.4742 37.2126 34.2018 36.6821 28.9293 36.1516C24.5561 35.7254 20.2634 35.0672 15.9706 34.409C12.1275 33.8029 7.65496 32.6146 3.69814 33.684C3.58928 33.6981 3.49462 33.8212 3.49462 33.8212C3.38576 33.8354 3.18223 33.9726 3.19642 34.0815C2.9787 34.1099 2.80356 34.4648 2.9408 34.6684C6.58001 40.5043 12.0368 44.9963 16.2724 50.3117C20.9197 56.2377 25.5528 62.0548 30.0913 67.995C34.3695 73.637 38.6618 79.3878 42.533 85.3043C44.5916 88.3572 46.2289 91.5757 47.8805 94.9031C49.2434 97.7146 50.3885 100.554 52.2673 103.077C51.9975 103.555 52.7216 104.014 53.2234 103.617C55.8503 100.839 59.2724 99.0642 62.4483 97.1002C65.9367 94.9849 69.4108 92.7606 72.885 90.5364C75.545 88.8611 78.205 87.1859 80.9739 85.4964C82.8764 87.3518 85.1576 88.7151 87.3299 90.0925C89.3934 91.4842 90.8747 93.5053 93.2079 94.4189C93.3168 94.4047 93.4399 94.4994 93.5487 94.4852C94.164 94.9585 94.8171 94.8734 95.0727 94.2865ZM90.889 91.0678C91.405 90.7791 92.0297 90.4763 92.5456 90.1876C92.9527 89.9131 93.4828 89.7333 93.8898 89.4588C93.9182 89.6765 93.8519 90.0173 93.8803 90.235C93.1751 90.7698 92.4698 91.3046 91.7504 91.7305C91.5185 91.65 91.2582 91.3518 90.889 91.0678ZM85.2997 87.2574C86.9705 86.486 88.6129 85.497 90.2553 84.5079C91.68 83.5472 93.2419 82.79 94.6666 81.8294C94.6287 82.3878 94.4961 83.0694 94.4582 83.6279C93.1803 84.0159 91.9733 84.9482 90.8468 85.6486C89.3938 86.3915 88.1868 87.3238 86.8568 88.1615C86.2557 87.797 85.7777 87.5272 85.2997 87.2574ZM83.7284 86.2444C85.4513 85.0234 87.4061 83.8829 89.2662 82.8655C91.221 81.725 93.1474 80.3668 94.9792 79.1316C94.9271 79.5812 94.875 80.0309 94.714 80.4947C94.714 80.4947 94.714 80.4947 94.6052 80.5089C91.4576 82.6905 88.2296 85.1041 84.8217 86.9875C84.5756 86.7982 84.2065 86.5142 83.7284 86.2444ZM97.3787 79.7045C96.9243 81.3136 96.3751 83.0458 95.8118 84.6692C95.8924 81.891 95.9873 79.2216 96.1768 76.4292C96.8963 76.0033 96.6455 74.9289 95.964 74.7963C95.8409 74.7016 95.7178 74.607 95.4859 74.5265C91.7233 73.6885 88.1595 71.8282 84.8277 70.0483C80.9089 68.0129 77.0044 66.0863 72.991 64.1739C65.3333 60.6331 57.3396 57.9111 49.5068 54.7252C41.6882 51.6482 34.0305 48.1074 26.4676 44.4436C19.8464 41.2105 13.1827 37.6509 6.38638 34.7727C9.01785 35.4261 11.2565 36.4627 13.7128 37.471C16.879 38.8296 20.4097 39.5871 23.6707 40.8227C32.2938 44.1269 40.9028 47.3223 49.6065 50.3946C58.0783 53.3864 66.5358 56.2694 74.9792 59.0435C83.1907 61.7372 91.634 64.5113 100.153 66.1684C100.262 66.1542 100.371 66.1401 100.48 66.1259C100.48 66.1259 100.48 66.1259 100.494 66.2347C99.7979 71.0859 98.6901 75.3266 97.3787 79.7045ZM16.5763 35.6585C20.8833 36.4256 25.176 37.0838 29.5634 37.6189C34.0597 38.1399 38.5701 38.7697 43.1752 39.2764C42.7824 39.6598 42.3753 39.9342 41.9825 40.3176C41.6843 40.5779 42.0818 41.0796 42.38 40.8193C42.9764 40.2987 43.6958 39.8728 44.3064 39.4611C44.6472 39.5274 45.0968 39.5795 45.4376 39.6458C44.6376 40.3036 43.8519 41.0703 42.929 41.6334C42.6166 41.7848 42.9052 42.3008 43.2176 42.1493C44.4672 41.5436 45.6883 40.7202 46.8953 39.7879C50.2746 40.233 53.5308 40.5835 56.9101 41.0286C65.9168 42.1794 74.9661 43.6567 83.8924 45.0394C88.294 45.6834 92.8186 46.422 97.2865 46.7253C101.428 47.0711 105.664 47.2938 109.687 48.43C109.796 48.4159 109.919 48.5105 110.027 48.4963C108.262 54.4834 103.438 59.0977 100.854 64.7486C100.745 64.7628 100.731 64.6539 100.622 64.6681C92.3867 62.6418 84.2178 60.2748 76.1294 57.6758C76.8772 57.4676 77.502 57.1647 78.2498 56.9565C80.0578 56.3887 82.0031 56.0244 83.6597 55.1442C83.8632 55.007 83.726 54.8034 83.5225 54.9407C80.872 55.8397 78.0984 56.6441 75.4337 57.4344C74.6291 57.2071 73.8103 56.871 73.0057 56.6438C74.1748 56.27 75.3297 55.7873 76.4987 55.4135C78.1979 54.8598 79.8024 54.4292 81.3501 53.5632C81.459 53.549 81.4306 53.3313 81.2129 53.3597C79.6368 54.008 78.0323 54.4386 76.3189 54.8834C74.8233 55.2997 73.4507 55.8108 72.0781 56.3219C71.5054 56.1751 70.9186 55.9195 70.3459 55.7727C73.2141 54.8453 75.9593 53.8232 78.7187 52.9099C78.8275 52.8957 78.7992 52.678 78.7045 52.801C75.5902 53.5391 72.5184 54.6038 69.4324 55.5597C68.7367 55.3182 68.041 55.0768 67.2364 54.8496C70.2419 54.1256 73.3136 53.061 76.1393 51.8069C76.2482 51.7927 76.2198 51.575 76.0021 51.6034C72.8214 52.6823 69.5036 53.5576 66.323 54.6365C65.5184 54.4093 64.8227 54.1678 64.0039 53.8318C67.0094 53.1078 70.0811 52.0431 72.7837 50.6944C72.8926 50.6803 72.7695 50.5856 72.7695 50.5856C69.5322 51.229 66.2711 52.5398 63.0762 53.5098C62.6124 53.3489 62.0398 53.2021 61.5759 53.0412C64.3353 52.1279 66.806 50.6987 69.731 50.2067C69.9487 50.1783 69.9062 49.8518 69.6884 49.8802C68.1644 50.0788 66.7918 50.5899 65.4192 51.1009C63.9378 51.6262 62.3333 52.0568 60.9891 52.7856C60.9891 52.7856 60.9891 52.7856 60.8802 52.7997C60.2933 52.5441 59.7207 52.3974 59.1338 52.1417C61.5666 51.2711 63.8622 50.1968 66.3091 49.435C66.5269 49.4066 66.4843 49.0801 66.2666 49.1084C63.5877 49.7898 60.9655 50.9066 58.2062 51.8198C57.6193 51.5642 57.0466 51.4174 56.3509 51.176C58.5944 50.5514 60.729 49.941 62.821 49.0041C63.0245 48.8668 62.8731 48.5544 62.6554 48.5828C60.3456 49.5482 57.8844 50.2011 55.4233 50.8541C54.9595 50.6932 54.4956 50.5322 53.923 50.3854C55.8398 49.8034 57.6479 49.2356 59.5648 48.6536C59.7825 48.6252 59.7257 48.1898 59.5222 48.327C57.3876 48.9374 55.376 49.6425 53.2414 50.2529C52.7776 50.0919 52.4226 49.9168 51.973 49.8647C53.4687 49.4483 55.0448 48.8 56.5404 48.3836C56.7581 48.3552 56.6067 48.0428 56.389 48.0712C54.6898 48.6248 52.8534 48.9749 51.1684 49.6374C50.5958 49.4907 50.1178 49.2209 49.5451 49.0741C51.0407 48.6577 52.4133 48.1466 53.909 47.7303C54.1267 47.7019 54.0841 47.3753 53.8664 47.4037C52.153 47.8484 50.4539 48.4021 48.7405 48.8469C48.6174 48.7522 48.3997 48.7806 48.2767 48.6859C47.9359 48.6196 47.6898 48.4303 47.349 48.364C48.3146 48.1274 49.1571 47.7962 50.0137 47.5738C50.2315 47.5454 50.1889 47.2188 49.9712 47.2472C48.7879 47.5122 47.6047 47.7771 46.4214 48.0421C46.0806 47.9758 45.8345 47.7865 45.4938 47.7202C46.0239 47.5404 46.4451 47.3747 46.9752 47.1949C47.1787 47.0577 47.0273 46.7453 46.8096 46.7737C46.076 47.0907 45.437 47.2847 44.675 47.3841C44.32 47.2089 43.9793 47.1426 43.6243 46.9675L43.7332 46.9533C44.0598 46.9107 44.481 46.7451 44.8076 46.7025C45.0253 46.6742 44.9827 46.3476 44.765 46.376C44.1118 46.4611 43.4587 46.5463 42.8197 46.7403C35.9855 44.4206 29.246 41.9779 22.4923 39.4264C16.775 37.1826 9.66633 34.4559 4.51692 34.0201C8.47841 33.8358 12.6102 34.9578 16.5763 35.6585ZM72.8093 89.107C69.1317 91.4685 65.5629 93.8158 61.8852 96.1773C59.0216 97.9898 56.1439 99.6934 53.7867 101.993C51.9221 99.5795 50.7627 96.6308 49.414 93.9282C47.9139 90.9132 46.3049 87.9124 44.3836 85.063C40.5124 79.1466 36.1112 73.4099 31.9419 67.7538C27.4034 61.8136 22.6614 56.0106 18.0141 50.0847C13.8069 44.987 9.11215 40.3957 4.7014 35.4352C11.6112 39.1842 18.7909 42.4552 25.89 45.9581C33.5903 49.8255 41.4798 53.4467 49.4357 56.7273C57.2685 59.9131 65.1533 62.6493 72.8252 66.299C76.8386 68.2114 80.7431 70.138 84.6761 72.2823C87.4069 73.6976 90.3696 75.1935 93.3702 76.1308C90.2605 77.754 87.3023 79.6895 84.4671 81.7198C80.5859 84.2185 76.6905 86.6083 72.8093 89.107ZM82.0341 85.1368C82.7394 84.602 83.5677 84.1619 84.2729 83.6271C87.9364 81.1568 91.491 78.7006 95.4574 76.8551C95.3911 77.1959 95.339 77.6455 95.2727 77.9862L95.1638 78.0004C93.2232 79.2498 91.4057 80.5938 89.4651 81.8432C87.4156 83.1067 85.3662 84.3703 83.4823 86.0551C82.8955 85.7994 82.5263 85.5154 82.0341 85.1368ZM87.1029 88.3508C88.2578 87.8681 89.3842 87.1677 90.5249 86.5762C91.7745 85.9705 92.9956 85.147 94.2594 84.6502C94.2073 85.0998 94.1552 85.5494 94.0889 85.8902C92.243 87.0165 90.4112 88.2517 88.4281 89.1744C88.0589 88.8904 87.5809 88.6206 87.1029 88.3508ZM89.1522 89.6336C89.9947 89.3023 90.8229 88.8622 91.6371 88.3133C92.4653 87.8732 93.2936 87.4331 94.1219 86.993C94.0698 87.4426 94.0319 88.0011 94.0887 88.4365C92.8534 89.1511 91.618 89.8657 90.4915 90.5661C90.0135 90.2963 89.5213 89.9176 89.1522 89.6336ZM92.4887 92.2985C93.0046 92.0098 93.5205 91.7211 94.0364 91.4325C93.8755 91.8963 93.8376 92.4548 93.6908 93.0274C93.2128 92.7576 92.8578 92.5825 92.4887 92.2985Z"
                  fill="#3F92D1"></path>
            <path d="M262.611 73.3317C248.498 72.0717 233.148 74.0726 220.284 79.8459C214.85 82.3255 209.436 85.7991 205.99 90.7874C204.669 90.8488 203.363 91.0191 202.056 91.1894C196.083 92.0788 190.281 94.2744 185.027 97.2842C182.149 98.9879 179.546 101.099 176.805 103.006C173.251 105.462 169.587 107.932 165.867 109.967C158.739 113.885 150.002 117.349 141.819 114.873C140.209 114.419 138.681 113.733 137.232 112.814C143.641 109.322 148.796 103.004 148.811 95.4736C148.802 88.6108 141.844 83.6502 135.289 85.169C130.135 86.3945 128.312 91.9461 128.052 96.7405C127.848 101.97 129.187 107.996 132.788 111.844C133.034 112.033 133.172 112.237 133.432 112.535C133.011 112.7 132.589 112.866 132.168 113.032C125.523 115.559 117.406 115.288 110.761 112.722C104.007 110.171 98.8725 104.751 95.9102 98.1628C95.6073 97.538 94.5471 97.8977 94.8642 98.6313C98.0205 105.859 103.648 111.657 110.988 114.464C118.452 117.366 127.492 117.073 134.828 113.903L134.937 113.888C140.2 117.741 147.271 118.48 153.637 117.208C161.825 115.476 169.194 110.862 176.114 106.196C181.609 102.49 186.518 98.5291 192.619 96.0731C196.41 94.5825 200.461 93.3901 204.626 93.0686C201.781 98.4213 201.327 105.123 204.459 110.472C208.155 116.743 217.016 115.92 221.701 111.102C226.387 106.285 222.966 97.8739 218.508 94.2481C215.664 91.9619 212.105 90.9866 208.427 90.8018C208.522 90.6787 208.711 90.4326 208.806 90.3096C212.73 85.5911 218.528 82.5104 224.222 80.3289C236.031 75.8004 249.652 74.1353 262.213 75.3763C263.671 75.5184 263.96 73.488 262.611 73.3317ZM133.087 109.037C131.468 106.812 130.65 103.93 130.186 101.223C129.467 96.5561 129.756 89.433 134.797 87.3367C137.215 86.3571 140.297 87.0625 142.549 88.2081C145.744 89.7844 146.988 93.3862 146.761 96.7372C146.292 103.33 141.104 108.545 135.401 111.503C134.525 110.732 133.759 109.946 133.087 109.037ZM211.068 93.2252C217.187 94.3095 222.8 99.9989 221.773 106.554C221.1 110.738 216.154 112.711 212.411 112.867C208.776 113.009 206.296 110.122 205.108 106.955C203.381 102.198 204.484 97.0727 207.035 92.8653C208.37 92.9127 209.719 93.069 211.068 93.2252Z"
                  fill="#3F92D1"></path>
            <path d="M71.5403 93.8115C68.5253 95.3116 65.3873 96.7171 62.4007 98.4349C59.1159 100.413 56.0109 102.921 52.7545 105.117C52.7545 105.117 52.6456 105.131 52.6598 105.24C51.33 103.531 50.4877 101.316 49.3613 99.4705C47.9464 97.1086 46.4367 94.8698 44.9271 92.631C41.8794 87.9357 39.3334 82.8429 36.0822 78.2848C35.9592 78.1902 35.8645 78.3132 35.8787 78.4221C38.1786 83.3256 41.1032 87.9262 43.919 92.541C45.3339 94.9029 46.8436 97.1417 48.3674 99.4893C49.754 101.633 50.6247 104.066 52.2006 105.964C52.3379 106.168 52.6645 106.125 52.868 105.988C52.991 106.083 53.3318 106.149 53.5353 106.012C56.5078 104.185 59.0968 101.965 61.9462 100.044C65.0938 97.8624 68.3786 95.8843 71.6918 94.1239C71.7864 94.0008 71.6492 93.7973 71.5403 93.8115Z"
                  fill="#3F92D1"></path>
            <path d="M69.5807 96.6132C66.3055 97.8152 63.6217 100.158 60.7581 101.97C57.6911 103.92 54.6382 105.979 51.7083 108.132L51.6136 108.255C50.5725 107.062 50.033 105.472 49.3989 104.005C48.7364 102.32 47.6669 100.909 46.5832 99.3898C44.1128 95.7263 41.7514 92.0487 39.6881 88.1107C39.6739 88.0018 39.4562 88.0302 39.4704 88.1391C40.6628 92.1906 43.0242 95.8682 45.3573 99.3282C46.5925 101.16 47.7993 102.774 48.6132 104.771C49.2615 106.347 49.8956 107.815 51.1687 109.088C51.3059 109.291 51.6183 109.14 51.713 109.017C51.836 109.112 52.0537 109.083 52.2573 108.946C54.9836 106.93 57.833 105.009 60.6823 103.087C63.6406 101.152 66.4048 98.5772 69.7748 97.2522C70.3049 97.0724 70.1109 96.4334 69.5807 96.6132Z"
                  fill="#3F92D1"></path>
            <path d="M90.5823 76.8264C90.6912 76.8122 90.7859 76.6891 90.8664 76.4572C90.9752 76.443 91.0983 76.5377 91.0983 76.5377C91.6709 76.6844 91.7751 75.7852 91.2025 75.6384C86.2803 74.398 82.2859 70.9332 77.5389 69.3379C77.307 69.2574 77.1318 69.6124 77.3637 69.6928C81.5144 71.8088 85.3147 74.6346 89.8299 76.1495C88.1875 77.1386 86.6823 78.3311 85.0541 79.4291C82.7206 81.0618 80.3588 82.4767 78.0111 84.0006C77.8076 84.1378 77.959 84.4502 78.1626 84.313C80.2262 83.1583 82.2898 82.0036 84.3393 80.74C86.4171 79.6942 88.4098 77.9952 90.5823 76.8264Z"
                  fill="#3F92D1"></path>
            <path d="M23.9446 46.3224C18.9089 44.2111 14.4933 40.9119 9.53811 38.5688C9.0601 38.2989 8.61515 39.1319 9.20201 39.3875C14.1572 41.7307 18.6533 44.798 23.7695 46.6773C24.0156 46.8667 24.2854 46.3887 23.9446 46.3224Z"
                  fill="#3F92D1"></path>
            <path d="M5.88006 39.3778C4.18108 37.3851 2.4679 35.2835 0.972446 33.1536C0.944064 32.9359 0.740537 33.0731 0.768919 33.2908C1.72008 35.4917 3.41906 37.4844 4.88614 39.3966C6.50465 41.6212 8.53021 43.5713 10.054 45.919C10.3285 46.3261 10.9391 45.9143 10.6646 45.5073C9.26383 43.2543 7.36132 41.3988 5.88006 39.3778Z"
                  fill="#3F92D1"></path>
            <path d="M5.28768 40.7835C3.98623 39.2925 2.01743 37.7778 1.2177 35.8893C1.17513 35.5627 0.862745 35.7142 0.891127 35.9319C1.32171 37.5364 2.71783 38.9043 3.88204 40.1918C5.44378 41.9809 6.88247 43.6754 8.34955 45.5876C8.73289 45.9805 9.32928 45.4599 9.0548 45.0529C7.8622 43.5477 6.57494 42.1656 5.28768 40.7835Z"
                  fill="#3F92D1"></path>
            <path d="M102.591 58.5438C101.483 60.2381 100.499 62.0271 99.732 63.7877C99.5569 64.1427 100.144 64.3983 100.319 64.0433C101.261 61.9278 102.515 59.6608 103.812 57.7204C104.92 56.0261 106.382 54.5069 107.135 52.6374C107.216 52.4055 106.875 52.3392 106.78 52.4623C105.743 54.7009 103.983 56.4804 102.591 58.5438Z"
                  fill="#3F92D1"></path>
            <path d="M98.3549 63.4137C98.1798 63.7687 98.7667 64.0243 98.9418 63.6694C100.584 60.134 102.951 57.0577 105.195 53.8868C105.289 53.7638 105.029 53.4656 104.949 53.6975C102.568 56.6649 99.9833 59.7695 98.3549 63.4137Z"
                  fill="#3F92D1"></path>
            <path d="M97.2237 63.229C97.0486 63.584 97.6354 63.8396 97.8106 63.4847C99.3206 60.6308 100.869 57.2185 103.117 54.9326C103.226 54.9184 103.103 54.8238 102.994 54.838C101.839 55.3206 100.854 57.1096 100.206 58.0798C99.084 59.6653 98.2083 61.4401 97.2237 63.229Z"
                  fill="#3F92D1"></path>
            <path d="M97.8155 59.2771C97.0581 60.2615 96.2061 61.3689 95.8037 62.5285C95.6286 62.8834 96.2154 63.1391 96.3906 62.7841C96.793 61.6246 97.6592 60.626 98.3077 59.6558C99.1455 58.4394 100.092 57.209 101.053 56.0873C101.242 55.8412 100.887 55.6661 100.793 55.7891C99.6142 56.9391 98.6533 58.0608 97.8155 59.2771Z"
                  fill="#3F92D1"></path>
            <path d="M95.3825 62.6941C96.121 60.7158 97.773 58.9505 98.3884 56.8775L98.3742 56.7687C97.8441 56.9485 97.347 58.2311 97.063 58.6002C96.3341 59.8024 95.2785 61.047 94.8903 62.3154C94.7294 62.7793 95.2074 63.0491 95.3825 62.6941Z"
                  fill="#3F92D1"></path>
            <path d="M94.1142 62.3059C94.4928 61.8137 94.7343 61.118 95.0041 60.64C95.4632 59.9159 95.7993 59.0971 96.2585 58.373C96.339 58.1411 96.0929 57.9518 95.9035 58.1979C95.0657 59.4142 94.474 60.8198 93.6362 62.0361C93.5557 62.268 93.9248 62.552 94.1142 62.3059Z"
                  fill="#3F92D1"></path>
            <path d="M108.02 57.7255C106.884 59.2021 105.98 60.7591 104.967 62.3304C103.94 63.7928 102.927 65.3641 102.254 67.0016C102.269 67.1105 102.269 67.1105 102.283 67.2193C101.951 68.9232 101.715 70.504 101.492 72.1936C101.336 73.5425 100.948 74.8109 101.023 76.2402C101.037 76.3491 101.255 76.3207 101.241 76.2119C101.416 73.3106 102.325 70.0922 102.95 67.243C102.936 67.1342 102.936 67.1342 102.922 67.0253C104.157 63.7644 106.799 61.0952 108.252 57.8059C108.238 57.6971 108.115 57.6024 108.02 57.7255Z"
                  fill="#3F92D1"></path>
        </g>
        <defs>
            <clipPath id="clip0_4016_18">
                <rect width="255.458" height="108.682" fill="white"
                      transform="translate(0.522217 33.1016) rotate(-7.42725)"></rect>
            </clipPath>
        </defs>
    </symbol>

    <symbol fill="none" xmlns="http://www.w3.org/2000/svg" viewBox="0 0 151 95" id="tags">
        <g clip-path="url(#clip0_4016_17)">
            <path d="M149.988 11.1817C149.098 8.61238 147.407 6.92907 144.736 6.75187C140.997 6.57468 137.258 6.75187 133.519 6.75187C125.775 6.75187 117.941 6.57468 110.196 6.1317C102.451 5.68873 94.6173 5.95451 86.8724 6.1317C83.0446 6.3089 79.2167 6.57468 75.3888 6.75187C72.4511 6.84047 69.5134 6.75187 66.5757 6.92906C64.3502 7.10626 61.6796 7.46064 60.2552 9.49834C59.365 10.8273 59.7211 12.7764 59.8101 14.1939C59.9882 16.143 59.8101 18.0921 59.8992 20.1298C57.6736 20.1298 55.4481 20.1298 53.2226 20.2184C45.4778 20.307 37.644 20.2184 29.8992 20.3956C26.0713 20.4842 22.2434 20.6614 18.3265 21.1044C14.9437 21.4588 11.4719 21.8131 8.26711 23.0535C7.10984 23.4965 6.21963 23.9394 5.50747 24.914C4.7953 25.8885 4.61726 27.2175 4.43922 28.3692C4.3502 29.6096 4.43922 30.8499 4.52824 32.0016C4.61726 33.5964 4.61726 35.1911 4.70628 36.6972C4.97334 40.5068 5.50747 44.2278 5.68551 48.0375C5.86355 51.8471 5.86355 55.5681 5.86355 59.3777C5.95257 63.1873 6.04159 66.9083 5.95257 70.7179C5.95257 72.4899 5.86355 74.3504 5.95257 76.1223C6.04159 77.6284 6.84278 78.9573 7.55494 80.1977C8.44515 81.7924 10.4036 82.5012 12.095 82.9441C14.5876 83.6529 17.0802 83.7415 19.6618 83.8301C22.5995 83.8301 25.5371 83.8301 28.4748 83.7415C29.8992 83.6529 31.3235 83.5643 32.6588 83.3871C33.8161 83.2099 34.9733 82.8556 36.2196 82.767C36.9318 85.6906 38.2671 88.7915 40.6707 90.7406C41.917 91.8037 43.2523 92.6897 44.7656 93.487C46.19 94.1958 47.6143 94.9046 49.3057 94.9932C50.1069 94.9932 50.1959 94.0186 49.5727 93.6642C48.3265 92.7783 47.6143 90.8292 47.3472 89.5002C46.9911 87.7283 47.0802 85.6906 47.5253 84.0073C47.6143 83.6529 47.7033 83.3871 47.8814 83.0327C47.9704 82.8556 48.2374 82.5012 48.0594 82.5012C48.5045 82.4126 49.2167 82.5898 49.5727 82.5898C51.6202 82.6784 53.6677 82.5898 55.7152 82.5898C63.549 82.5898 71.3828 82.4126 79.1276 81.881C80.9971 81.7924 82.8665 81.7038 84.7359 81.5266C86.2493 81.438 87.7627 81.2608 89.0089 80.3749C90.9674 78.9573 91.1454 75.9451 91.5015 73.8188C91.9466 70.8951 91.7686 67.7943 91.5906 64.8706C94.8843 64.8706 98.2671 64.6934 101.561 64.6048C104.855 64.5163 108.148 64.6048 111.442 64.2505C111.62 67.3513 111.175 70.7179 108.326 72.5785C107.614 73.0214 108.059 74.3504 108.95 74.0846C111.798 73.0214 115.003 72.5785 117.318 70.6293C119.276 69.0346 119.276 66.554 119.543 64.2505C126.665 63.9847 133.786 64.6048 140.997 63.5417C143.49 63.1873 146.427 62.8329 147.496 60.0865C148.03 58.6689 148.03 56.9856 148.386 55.5681C148.831 53.7962 149.276 52.1129 149.454 50.3409C150.433 42.8103 150.789 35.1911 150.878 27.6605C150.878 25.0026 151.056 22.3447 151.056 19.5982C150.878 17.029 150.789 13.6623 149.988 11.1817ZM89.365 76.0337C89.098 77.274 88.7419 78.5144 87.7627 79.3117C87.1395 79.8433 85.8932 79.9319 85.092 80.0205C84.0238 80.1091 82.8665 80.1977 81.7983 80.2863C77.8814 80.5521 73.9644 80.7293 70.0475 80.8179C66.1306 80.995 62.2137 80.995 58.2968 81.0836C54.825 81.0836 51.2641 80.995 47.7033 81.0836C46.6351 81.0836 46.368 82.0582 46.1009 82.9441C45.6558 84.4503 45.4778 85.7792 45.4778 87.3739C45.5668 89.323 46.0119 91.7151 47.3472 93.3984C46.546 93.1327 45.7449 92.6897 44.9437 92.2467C43.6084 91.6265 42.273 90.7406 41.2938 89.6774C39.4244 87.5511 38.0891 84.5389 37.733 81.7924C37.644 81.3494 37.1989 81.0836 36.8428 81.0836C35.2404 80.995 33.638 81.3494 32.0357 81.6152C30.0772 81.9696 28.1187 81.881 26.1603 81.9696C22.5104 81.9696 18.8606 82.2354 15.2107 81.7924C13.9644 81.6152 12.6291 81.3494 11.3828 80.9064C9.95851 80.3749 9.33536 79.5775 8.62319 78.3372C7.73299 76.6539 7.91103 75.0591 7.91103 73.1986C7.91103 71.2495 7.91103 69.3004 7.91103 67.2627C7.91103 63.4531 7.73299 59.7321 7.64397 55.9225C7.73299 52.0243 7.64396 48.2146 7.28788 44.405C6.9318 40.684 6.4867 36.963 6.4867 33.242C6.4867 30.9385 5.77453 28.192 7.02082 25.9771C7.64397 24.8254 9.24634 24.471 10.4036 24.1166C12.184 23.5851 14.0535 23.4079 15.8339 23.1421C19.7508 22.6105 23.6677 22.3447 27.5846 22.1675C35.3294 21.8131 43.1633 21.9903 50.9081 21.9017C58.7419 21.8131 66.4867 21.6359 74.3205 21.8131C76.19 21.8131 78.0594 21.9017 79.9288 21.9903C81.8873 22.0789 83.9348 21.9017 85.6262 22.9649C86.9615 23.8508 88.0297 25.0912 88.3858 26.5973C88.8309 28.2806 88.8309 30.0525 88.9199 31.7359C89.276 35.6341 89.6321 39.5323 89.8101 43.4305C89.8992 45.291 89.8992 47.1515 89.8101 48.9234C89.7211 50.8725 89.187 52.733 89.187 54.7707C89.0089 61.8584 90.7003 69.0346 89.365 76.0337ZM148.92 24.1166C148.831 27.4833 148.831 30.9385 148.742 34.3051C148.564 38.1147 148.297 41.9244 147.941 45.734C147.763 47.5945 147.674 49.455 147.318 51.3155C147.05 53.176 146.516 54.9479 146.071 56.7198C145.715 58.226 145.982 59.9093 144.558 60.7952C143.312 61.5926 141.709 61.6812 140.285 61.8584C136.546 62.39 132.807 62.4786 129.068 62.4786C125.507 62.39 122.036 62.3014 118.475 62.4786C118.119 62.4786 117.674 62.7443 117.585 63.0987C117.229 65.225 117.496 67.7057 115.804 69.389C114.558 70.6293 112.688 71.2495 110.908 71.6925C112.243 69.3004 112.243 66.3768 112.421 63.5417C112.421 63.1873 112.065 62.9215 111.798 62.8329C108.326 62.4786 104.766 62.8329 101.294 62.9215C97.911 63.0101 94.5282 63.0987 91.2345 63.0987C91.2345 62.9215 91.2345 62.8329 91.2345 62.6557C91.0564 58.8461 90.5223 55.1251 91.1454 51.4041C91.7686 47.6831 91.5015 43.7849 91.3235 40.0638C91.0564 36.2542 90.7003 32.5332 90.4333 28.7236C90.3443 27.3947 90.2552 26.0657 89.7211 24.8254C89.187 23.4079 88.1187 22.3447 86.8724 21.4588C85.6262 20.5728 84.2018 20.307 82.6885 20.2184C80.641 20.1298 78.5935 20.1298 76.6351 20.0412C71.5609 19.864 66.3977 19.864 61.3235 19.9526C61.4125 18.4465 61.7686 16.8518 61.5905 15.3457C61.4125 13.8395 61.0564 11.8904 61.5905 10.3843C62.2137 8.52379 65.6855 8.43519 67.2879 8.3466C70.4036 8.1694 73.6084 8.258 76.7241 8.08081C80.552 7.90362 84.3799 7.63783 88.2078 7.54923C95.9526 7.37204 103.786 7.19485 111.531 7.63783C119.276 8.08081 127.021 8.258 134.855 8.3466C136.724 8.3466 138.594 8.3466 140.463 8.3466C142.154 8.3466 144.113 8.1694 145.715 8.52379C148.475 9.14396 148.831 14.1053 149.009 16.3202C149.276 18.9781 149.009 21.5474 148.92 24.1166Z"
                  fill="#F47892"></path>
            <path d="M31.2344 47.5945L31.1454 47.6831C30.8784 47.8603 30.6113 48.0375 30.3442 48.3033C29.543 49.2778 29.187 50.6067 29.365 51.7585C29.543 53.176 30.9674 53.8848 32.2137 53.9734C33.46 54.062 34.7062 53.176 35.2404 52.0243C35.7745 50.6953 35.5074 49.3664 34.7062 48.2147C33.816 47.1515 32.3917 46.6199 31.2344 47.5945ZM33.9941 51.8471C33.549 52.6444 32.7478 52.9102 31.9466 52.8216C31.9466 52.733 31.8576 52.733 31.8576 52.6444C31.3235 52.1129 30.7003 51.8471 30.6113 50.9611C30.6113 50.2524 30.9674 49.455 31.4125 48.9234C31.5905 48.6576 31.8576 48.3919 32.2137 48.3033C32.3917 48.3033 32.5697 48.2147 32.7478 48.2147C33.1929 48.3033 33.638 48.9234 33.816 49.2778C34.4392 50.0752 34.4392 50.9611 33.9941 51.8471Z"
                  fill="#F47892"></path>
            <path d="M46.546 47.7717C45.8339 48.0375 45.3888 48.569 44.9437 49.1892C44.4095 49.8094 44.1425 50.6953 44.4986 51.5813C45.1217 53.0874 47.2582 54.1506 48.7716 53.176C50.3739 52.1129 50.3739 49.6322 49.1276 48.3918C48.5935 47.5945 47.4362 47.4173 46.546 47.7717ZM48.2374 52.1129C47.5253 52.8216 46.368 52.0243 45.8339 51.4927C45.6558 51.2269 45.5668 50.9611 45.5668 50.6953C45.6558 50.6067 45.7449 50.5181 45.8339 50.4295C46.0119 49.898 46.457 49.455 46.9021 49.1892C47.0802 49.1006 47.3472 49.1006 47.5253 49.1006C47.6143 49.1006 47.7033 49.1006 47.7033 49.012C47.9704 49.1006 48.2374 49.1892 48.4155 49.455C49.1276 50.0752 48.8606 51.4041 48.2374 52.1129Z"
                  fill="#F47892"></path>
            <path d="M62.5699 47.3287C61.5016 47.4173 60.7004 48.1261 60.3443 49.012C59.9883 49.3664 59.7212 49.898 59.7212 50.6067C59.7212 52.6444 62.0357 54.062 63.9052 53.5304C66.0417 52.9102 66.4868 50.1638 65.3295 48.569C64.7064 47.7717 63.6381 47.3287 62.5699 47.3287ZM63.193 52.5559C61.9467 52.8216 60.7004 51.4927 60.8785 50.341C60.8785 50.2524 60.8785 50.2524 60.8785 50.1638C61.1455 50.1638 61.3236 49.9866 61.4126 49.7208C61.5016 49.6322 61.5016 49.455 61.5906 49.3664C62.2138 49.012 63.015 48.9234 63.5491 48.9234C63.8162 49.1006 64.0832 49.2778 64.2613 49.6322C65.1515 50.6953 64.5283 52.2901 63.193 52.5559Z"
                  fill="#F47892"></path>
            <path d="M4.5283 24.5596C5.15144 23.2307 6.57577 22.7877 7.82207 22.2561C9.2464 21.7245 10.7598 21.4587 12.1841 21.1044C15.2998 20.4842 18.5936 20.5728 21.7093 20.2184C22.2434 20.1298 22.0654 19.2439 21.4422 19.3325C17.9704 19.7754 14.4986 19.6868 11.0268 20.3956C9.60248 20.6614 8.17815 21.0158 6.84284 21.5473C5.86361 21.9017 4.5283 22.4333 3.90515 23.4079C2.56984 25.6227 2.74788 28.3692 2.74788 30.8499C3.01494 34.4823 3.28201 38.1147 3.54907 41.7472C3.54907 42.0129 3.99417 42.0129 3.99417 41.7472C4.17221 38.6463 3.90515 35.5455 3.90515 32.4446C3.81613 29.8753 3.46005 26.9517 4.5283 24.5596Z"
                  fill="#F47892"></path>
            <path d="M12.362 19.5097C12.9852 19.3325 12.7181 18.4465 12.095 18.6237C8.80118 19.5983 4.1721 19.6868 2.21364 23.0535C1.76854 23.8508 1.5905 24.8254 1.41246 25.7114C1.23442 26.6859 0.967354 27.7491 0.878333 28.7236C0.611271 31.0271 1.32344 33.4192 1.50148 35.7227C1.50148 35.9885 1.85756 35.9885 1.94658 35.7227C2.12462 33.7736 1.85756 31.9131 1.76854 30.0525C1.67952 28.0148 2.21364 25.8885 2.74777 23.9394C3.81602 20.3956 9.51335 20.2184 12.362 19.5097Z"
                  fill="#F47892"></path>
            <path d="M11.4718 65.1364C12.9852 62.9215 15.0327 60.9724 16.8131 58.9347C17.0802 58.5803 16.635 58.0488 16.279 58.4032C15.2997 59.4663 14.3205 60.5294 13.3413 61.504C12.3621 62.4785 11.2938 63.4531 10.6707 64.6048C10.4036 65.1364 11.1158 65.5794 11.4718 65.1364Z"
                  fill="#F47892"></path>
            <path d="M11.4719 68.3259C11.2048 68.6803 11.828 69.0346 12.095 68.6803C14.1425 66.111 16.101 63.2759 18.5045 60.9724C18.7716 60.7067 18.3265 60.2637 18.0594 60.5295C16.9021 61.6812 15.9229 62.9216 14.8547 64.1619C13.6974 65.4908 12.5401 66.9084 11.4719 68.3259Z"
                  fill="#F47892"></path>
            <path d="M12.006 72.6671C13.4304 71.4267 14.4986 69.6548 15.6559 68.1487C17.0802 66.1996 18.7716 64.5162 20.374 62.6557C20.463 62.4785 20.285 62.3014 20.196 62.4785C17.1693 65.5794 14.4096 68.8574 11.4719 72.0469C11.1158 72.4013 11.65 72.9328 12.006 72.6671Z"
                  fill="#F47892"></path>
            <path d="M21.8872 65.0478C22.1542 64.782 21.7091 64.2505 21.442 64.6049C18.1483 68.3259 14.7655 71.8697 11.5607 75.6793C11.2937 76.0337 11.6498 76.6539 12.0949 76.2995C12.9851 75.7679 13.4302 74.7934 14.0533 73.996C14.9435 73.0214 15.7447 72.0469 16.6349 71.0723C18.4153 69.2118 20.1958 67.0855 21.8872 65.0478Z"
                  fill="#F47892"></path>
            <path d="M22.6883 67.6171C20.2848 70.9837 17.169 73.9074 14.4984 77.0082C14.1423 77.4512 14.7655 77.9828 15.1216 77.5398C17.7032 74.2618 20.3738 71.1609 22.6883 67.6171Z"
                  fill="#F47892"></path>
            <path d="M24.558 69.7434C22.1544 72.4013 19.3948 74.7934 17.4363 77.8056C17.1692 78.2486 17.7924 78.6916 18.1485 78.2486C20.285 75.4135 22.5105 72.7557 24.736 70.0092C24.914 69.832 24.736 69.5662 24.558 69.7434Z"
                  fill="#F47892"></path>
            <path d="M25.3592 71.5153C23.8458 73.9074 21.7093 75.8565 20.0179 78.16C19.6618 78.603 20.463 79.1345 20.8191 78.603C22.5105 76.2995 24.469 74.2618 25.8933 71.7811C26.0713 71.5153 25.5372 71.2495 25.3592 71.5153Z"
                  fill="#F47892"></path>
            <path d="M27.8517 72.9328C26.5164 74.7933 25.092 76.5653 23.5787 78.3372C23.1336 78.7802 23.8458 79.4003 24.2018 78.8687C25.5371 77.0082 27.0505 75.1477 28.0297 73.11C28.1187 72.9328 27.9407 72.8442 27.8517 72.9328Z"
                  fill="#F47892"></path>
            <path d="M28.8308 75.1477C28.2967 76.2995 27.5845 77.3626 26.9613 78.4258C26.7833 78.7802 27.4064 79.2231 27.5845 78.7802C28.1186 77.6284 28.8308 76.4767 29.1869 75.2363C29.2759 75.0591 28.9198 74.9705 28.8308 75.1477Z"
                  fill="#F47892"></path>
            <path d="M30.4332 76.3881C30.1661 76.9196 29.81 77.3626 29.632 77.8942C29.543 78.2486 30.0771 78.4258 30.2551 78.0714C30.4332 77.5398 30.7003 77.0968 30.8783 76.6538C31.0563 76.2995 30.6112 76.0337 30.4332 76.3881Z"
                  fill="#F47892"></path>
            <path d="M37.8219 89.6774C37.1988 88.9686 36.5756 88.0827 36.2195 87.1967C35.6854 86.1336 35.5964 84.8932 35.3293 83.8301C35.2403 83.3871 34.6172 83.5643 34.7062 84.0073C35.1513 85.9564 35.4184 87.7283 36.6646 89.323C37.2878 90.1204 37.9109 90.8291 38.7121 91.4493C39.6023 92.2467 40.7596 92.7782 41.5608 93.5756C41.6498 93.6642 41.9169 93.5756 41.8278 93.3984C40.6706 91.9809 38.9792 91.0063 37.8219 89.6774Z"
                  fill="#F47892"></path>
            <path d="M33.8159 84.2731C33.7269 83.8301 33.1928 84.0073 33.1038 84.3617C32.7477 87.0196 34.6171 90.1204 36.4865 91.8037C36.6646 91.9809 36.8426 91.7151 36.7536 91.5379C34.9732 89.5888 34.261 86.8424 33.8159 84.2731Z"
                  fill="#F47892"></path>
            <path d="M31.8575 87.374C31.5904 86.6652 31.5904 85.8678 31.3234 85.1591C31.1453 84.7161 30.5222 84.8933 30.6112 85.3362C30.7892 87.0196 31.5904 88.4371 32.5696 89.8546C32.7477 90.0318 33.0148 89.8546 32.9257 89.6774C32.4806 88.9687 32.1245 88.1713 31.8575 87.374Z"
                  fill="#F47892"></path>
            <path d="M79.5727 84.2731C81.086 84.1845 82.5994 84.1845 84.2018 84.0959C85.8041 84.0073 87.4065 83.7415 89.0089 83.6529C89.632 83.6529 89.632 82.767 89.0089 82.767C87.5846 82.767 86.1602 83.0328 84.7359 83.2099C83.0445 83.3871 81.3531 83.4757 79.6617 83.4757C76.635 83.6529 73.4303 83.3871 70.4036 83.9187C70.2255 83.9187 70.2255 84.2731 70.4036 84.2731C73.4303 83.9187 76.546 84.3617 79.5727 84.2731Z"
                  fill="#F47892"></path>
            <path d="M89.276 84.4503C86.6054 84.716 83.9348 85.0704 81.2641 85.0704C79.9288 85.0704 78.5935 85.0704 77.2582 85.0704C75.8339 85.0704 74.4095 84.8046 72.9852 84.9818C72.7181 84.9818 72.7181 85.4248 72.9852 85.4248C74.3205 85.5134 75.5668 85.6906 76.8131 85.8678C78.2374 86.045 79.7508 85.9564 81.1751 86.045C83.9348 86.045 86.6054 85.7792 89.276 85.5134C89.8992 85.3362 89.8101 84.3617 89.276 84.4503Z"
                  fill="#F47892"></path>
            <path d="M87.5845 64.4277C87.8516 66.7311 88.2077 69.0346 88.2077 71.3381C88.1187 73.11 88.0296 75.3249 86.4273 76.2995C84.6469 77.4512 81.8872 77.4512 79.8397 77.717C77.4362 77.9828 75.2107 77.9828 72.8071 77.717C72.54 77.717 72.54 78.0714 72.7181 78.16C75.3887 78.6915 77.9703 78.6915 80.6409 78.4258C82.6884 78.2486 85.448 78.16 87.1394 76.831C88.5638 75.7679 88.7418 73.996 88.9199 72.4013C89.1869 69.6548 88.9199 66.9083 88.4747 64.2505C88.3857 63.6303 87.4955 63.8961 87.5845 64.4277Z"
                  fill="#F47892"></path>
            <path d="M77.258 76.0337C79.5726 76.2109 82.5103 76.4767 84.4687 74.8819C86.6052 73.11 86.6942 69.4776 86.4272 66.9969C86.3382 66.2882 85.2699 66.3767 85.448 67.0855C85.804 69.389 85.715 72.667 83.8456 74.2618C82.1542 75.7679 79.3055 75.5021 77.258 75.6793C77.08 75.6793 77.08 76.0337 77.258 76.0337Z"
                  fill="#F47892"></path>
            <path d="M93.9941 39.8867C96.3087 36.7858 98.7122 33.8622 100.849 30.6727C101.027 30.4069 100.582 30.0525 100.404 30.4069C98.1781 33.5078 95.4185 36.2542 93.371 39.4437C93.0149 39.9753 93.638 40.3296 93.9941 39.8867Z"
                  fill="#F47892"></path>
            <path d="M93.816 43.6963C95.3293 42.1015 96.6646 40.241 98.178 38.5577C99.6023 36.963 101.027 35.3683 102.184 33.5964C102.362 33.3306 102.006 33.1534 101.828 33.3306C99.2462 36.8744 95.8634 39.7095 93.1928 43.1647C93.0148 43.5191 93.5489 43.9621 93.816 43.6963Z"
                  fill="#F47892"></path>
            <path d="M99.7803 38.4691C97.9999 41.3928 95.5073 43.7849 93.4598 46.5313C93.2818 46.7971 93.7269 47.1515 93.994 46.8857C96.3085 44.4936 98.534 41.57 100.136 38.6463C100.136 38.4691 99.8693 38.2919 99.7803 38.4691Z"
                  fill="#F47892"></path>
            <path d="M93.638 50.1638C95.9526 47.2401 98.2671 44.2279 100.137 41.0384C100.315 40.684 99.8695 40.4182 99.6024 40.684C97.644 43.8735 95.0624 46.6199 92.9259 49.7208C92.6588 50.1638 93.371 50.5181 93.638 50.1638Z"
                  fill="#F47892"></path>
            <path d="M98.7121 45.2024C97.0207 47.7717 95.0623 50.0752 93.3709 52.6444C93.1038 52.9988 93.6379 53.4418 93.905 53.0874C95.8635 50.6953 97.6439 48.126 99.3353 45.5568C99.5133 45.2024 98.9792 44.848 98.7121 45.2024Z"
                  fill="#F47892"></path>
            <path d="M99.3354 46.9743C97.466 50.3409 94.7063 52.9988 92.3918 56.0111C92.1247 56.3654 92.7479 56.8084 93.0149 56.5426C95.5075 53.7076 98.0891 50.6953 99.8696 47.3287C100.137 46.8857 99.6025 46.6199 99.3354 46.9743Z"
                  fill="#F47892"></path>
            <path d="M94.7952 57.34C96.4866 55.2137 98.267 52.9988 99.7804 50.6953C100.047 50.3409 99.5133 50.0752 99.2463 50.3409C97.6439 52.6444 95.8635 54.6821 94.1721 56.897C93.905 57.34 94.5282 57.6944 94.7952 57.34Z"
                  fill="#F47892"></path>
            <path d="M99.5134 53.3532C97.733 55.6567 95.7745 57.783 94.1721 60.1751C93.9051 60.6181 94.5282 60.9724 94.8843 60.6181C96.5757 58.3146 98.3561 56.0111 100.048 53.7076C100.315 53.3532 99.7804 52.9988 99.5134 53.3532Z"
                  fill="#F47892"></path>
            <path d="M101.383 55.6567C100.047 57.34 98.6231 58.9347 97.2878 60.7066C97.0207 61.061 97.6439 61.4154 97.9109 61.061C99.0682 59.2005 100.493 57.6058 101.739 55.9225C101.917 55.6567 101.561 55.3909 101.383 55.6567Z"
                  fill="#F47892"></path>
            <path d="M102.006 58.1374C101.561 58.8461 101.027 59.4663 100.76 60.2637C100.582 60.618 101.116 60.8838 101.383 60.6181C101.917 59.9979 102.184 59.2005 102.629 58.4917C102.718 58.0488 102.184 57.783 102.006 58.1374Z"
                  fill="#F47892"></path>
            <path d="M103.608 58.4917C103.341 58.9347 103.163 59.3777 102.896 59.8207C102.629 60.2637 103.341 60.7066 103.608 60.2637C103.875 59.8207 104.053 59.3777 104.32 58.9347C104.587 58.4917 103.875 58.0488 103.608 58.4917Z"
                  fill="#F47892"></path>
            <path d="M105.211 59.3777C105.122 59.2891 104.855 59.2005 104.766 59.3777C104.766 59.3777 104.766 59.3777 104.677 59.4663C104.588 59.5549 104.499 59.7321 104.499 59.8207C104.588 59.9979 104.766 60.0865 104.944 60.0865C105.033 60.0865 105.122 59.9979 105.122 59.9979L105.211 59.9093C105.3 59.7321 105.3 59.4663 105.211 59.3777Z"
                  fill="#F47892"></path>
            <path d="M108.237 69.9206C108.861 68.6803 109.662 67.1741 109.217 65.7566C109.039 65.3136 108.416 65.4908 108.505 65.9338C108.861 66.9969 108.237 68.1487 107.792 69.1232C107.347 70.0978 106.813 71.3381 105.656 71.5153C105.389 71.6039 105.478 72.0469 105.745 71.9583C106.991 71.8697 107.703 70.8951 108.237 69.9206Z"
                  fill="#F47892"></path>
            <path d="M120.344 65.0478C120.255 71.6925 112.777 74.9706 106.991 75.3249C106.724 75.3249 106.724 75.7679 106.991 75.7679C110.552 75.8565 114.113 74.7048 117.05 72.6671C119.632 70.8952 121.056 68.1487 121.234 65.0478C121.323 64.5163 120.344 64.4277 120.344 65.0478Z"
                  fill="#F47892"></path>
            <path d="M145.893 45.6454C145.626 46.3541 145.715 47.2401 145.626 48.0375C145.448 49.1892 145.27 50.3409 145.003 51.4927C144.647 53.7962 144.558 56.2769 143.846 58.5803C143.401 59.9093 141.709 59.9979 140.552 60.1751C139.306 60.4409 138.059 60.5294 136.813 60.618C134.321 60.7952 131.739 60.7066 129.246 60.4409C129.068 60.4409 128.979 60.7952 129.157 60.7952C131.739 61.4154 134.588 61.4154 137.258 61.2382C138.416 61.1496 139.573 60.9724 140.73 60.7952C141.62 60.618 143.045 60.618 143.757 59.9979C144.469 59.3777 144.736 58.6689 144.914 57.6944C145.092 56.3655 145.27 55.0365 145.448 53.7962C145.626 52.2015 145.982 50.6067 146.249 49.012C146.427 48.0375 146.427 46.7971 146.783 45.9112C146.962 45.3796 146.071 45.0252 145.893 45.6454Z"
                  fill="#F47892"></path>
            <path d="M133.43 59.3777C136.279 59.3777 140.285 59.5549 142.243 57.0742C144.469 54.1506 144.113 50.5181 144.647 47.0629C144.647 46.7971 144.38 46.7085 144.291 46.9743C143.668 49.7208 143.579 52.733 142.332 55.3023C141.531 56.897 140.374 57.6944 138.593 58.0488C136.902 58.3146 135.122 58.4032 133.43 58.4032C132.807 58.4032 132.807 59.3777 133.43 59.3777Z"
                  fill="#F47892"></path>
            <path d="M117.139 5.33435C126.398 5.60014 135.656 5.42295 144.825 6.57469C145.537 6.66329 145.537 5.60014 144.825 5.51154C135.656 4.53699 126.309 4.62559 117.139 4.97997C116.961 4.97997 116.961 5.24576 117.139 5.33435Z"
                  fill="#F47892"></path>
            <path d="M122.481 3.47385C129.959 3.47385 137.525 4.00543 145.003 4.44841C145.715 4.537 145.715 3.38526 145.003 3.38526C141.264 3.20807 137.436 2.85368 133.697 2.76509C129.959 2.67649 126.131 2.5879 122.481 3.29666C122.392 3.38526 122.392 3.47385 122.481 3.47385Z"
                  fill="#F47892"></path>
            <path d="M127.199 1.79053C129.958 1.79053 132.807 1.87912 135.567 1.87912C136.902 1.87912 138.237 1.87912 139.484 1.96772C140.641 2.05631 142.065 1.96772 143.134 2.3221C143.757 2.58789 144.024 1.52474 143.401 1.34755C142.599 1.08176 141.531 1.08176 140.73 1.08176C139.306 1.08176 137.881 0.993164 136.457 0.993164C133.341 0.993164 130.226 1.08176 127.11 1.25895C126.843 1.25895 126.843 1.79053 127.199 1.79053Z"
                  fill="#F47892"></path>
            <path d="M73.6083 18.7123C70.0474 18.8009 66.4866 18.7123 63.0148 18.9781V18.8895C62.8368 18.0921 63.1929 17.2062 63.1929 16.4088C63.2819 15.2571 63.1038 14.0167 63.0148 12.865C63.0148 12.6878 62.7477 12.6878 62.7477 12.865C62.5697 14.0167 62.4807 15.2571 62.3917 16.4088C62.3026 17.2948 61.9466 18.1807 62.1246 19.0667C62.2136 19.4211 62.6587 19.4211 62.8368 19.2439C66.3976 19.5097 69.9584 19.3325 73.5193 19.5097C74.1424 19.5097 74.1424 18.7123 73.6083 18.7123Z"
                  fill="#F47892"></path>
            <path d="M64.6173 17.7377C64.8844 17.9149 65.2405 17.8263 65.5966 17.8263C66.2197 17.7377 66.8429 17.8263 67.466 17.8263C68.8903 17.8263 70.3147 17.6491 71.739 17.6491C71.917 17.6491 71.917 17.3834 71.739 17.3834C69.7805 17.3834 67.8221 17.1176 65.8636 17.1176C65.5966 17.1176 65.0624 17.2948 65.0624 16.7632C65.0624 16.4088 65.1515 16.0544 65.1515 15.7C65.2405 14.8141 65.2405 13.8395 65.2405 12.9536C65.2405 12.422 64.4393 12.422 64.4393 12.9536C64.4393 14.0167 64.4393 15.0799 64.3503 16.2316C64.2613 16.586 64.1722 17.472 64.6173 17.7377Z"
                  fill="#F47892"></path>
        </g>
        <defs>
            <clipPath id="clip0_4016_17">
                <rect width="150" height="94" fill="white" transform="translate(0.878418 0.993164)"></rect>
            </clipPath>
        </defs>
    </symbol>

    <symbol xmlns="http://www.w3.org/2000/svg" viewBox="0 0 31 26" id="check-mark">
        <g clip-path="url(#clip0_7_453)">
            <path d="M24.5662 0.972531C24.5286 0.972531 24.4909 0.972531 24.4533 0.972531C24.378 0.935821 24.2651 0.972531 24.1898 1.04595C22.91 2.36751 21.8937 3.90934 20.7268 5.34103C19.5223 6.77272 18.3178 8.20442 17.1133 9.63611C15.9088 11.1045 14.7419 12.5729 13.6126 14.078C13.0857 14.7755 12.5963 15.473 12.107 16.2072C11.7306 16.7579 11.2036 17.3819 10.9401 18.006C9.81088 17.125 8.94514 16.0604 8.04175 14.9591C7.36421 14.1147 6.57374 12.9767 5.59507 12.3894C5.63272 12.2058 5.44451 12.0223 5.21866 12.1324C4.39056 12.5362 3.63773 13.2337 2.92255 13.7843C2.09445 14.4451 1.2287 15.1059 0.551158 15.9135C0.475876 15.9135 0.400594 16.0237 0.438235 16.0971C1.60511 17.8225 3.26132 19.144 4.87989 20.4656C6.68667 21.934 8.60637 23.329 10.3379 24.9075C10.4508 25.0176 10.6013 25.0176 10.7143 24.9442C10.7143 24.9442 10.7143 24.9442 10.7519 24.9442C11.166 24.8708 11.58 24.3201 11.8435 24.0265C12.4081 23.4391 12.8975 22.815 13.4244 22.191C14.0643 21.4568 14.7795 20.7593 15.4194 20.0618C16.3604 19.0339 17.2638 17.9693 18.2049 16.9047C21.8184 12.7565 26.1848 9.34243 29.4219 4.97393C29.5725 4.90051 29.6854 4.68025 29.4972 4.53341C27.9539 3.24856 26.5236 1.55989 24.5662 0.972531ZM18.0167 16.2806C17.1509 17.2718 16.3228 18.2997 15.4571 19.2541C14.7795 20.0251 14.0267 20.7593 13.3492 21.5669C12.8975 22.1175 12.4458 22.6682 11.9941 23.2188C11.7306 23.5125 11.2789 24.2467 10.8648 24.5404C10.8648 24.5037 10.8272 24.467 10.7896 24.467C7.59005 21.5669 3.63773 19.401 0.814646 16.0971C1.60511 15.5097 2.28265 14.8489 3.03547 14.2616C3.7883 13.7109 4.54112 12.9767 5.40687 12.5362C6.15969 13.4907 7.02544 14.3717 7.74062 15.3629C8.56873 16.4642 9.47211 17.6022 10.6013 18.4465C10.8272 18.5934 11.0907 18.4465 11.0907 18.2263C11.9188 16.7212 13.1233 15.2895 14.1773 13.8945C15.2689 12.4628 16.4357 11.0678 17.565 9.70953C18.6942 8.35126 19.8611 6.99298 21.028 5.63471C22.2325 4.23973 23.2488 2.6979 24.5286 1.37634C24.5662 1.33963 24.5662 1.30292 24.6039 1.26621C26.2224 2.11054 27.3893 3.46882 28.7444 4.60683C25.6955 8.93862 21.4796 12.2792 18.0167 16.2806Z" fill="#3F92D1"></path>
            <path d="M1.94398 14.3351C2.54624 13.8211 3.22378 13.3072 3.86368 12.8667C4.31537 12.5363 4.87999 12.2793 5.33168 11.9122C5.44461 11.8021 5.29404 11.6185 5.14348 11.7287C4.65414 12.1325 4.05188 12.4262 3.52491 12.7933C2.92265 13.2338 2.35803 13.711 1.83106 14.2249C1.79342 14.3351 1.8687 14.4085 1.94398 14.3351Z" fill="#3F92D1"></path>
            <path d="M2.05672 13.8578C2.47078 13.3805 3.11067 13.0134 3.60001 12.6096C4.01406 12.3159 4.54104 12.0223 4.91745 11.6919C5.03037 11.5817 4.87981 11.3982 4.72924 11.5083C4.27755 11.9121 3.71293 12.2058 3.26124 12.5729C2.80955 12.94 2.24493 13.3071 1.90616 13.7843C1.86852 13.8578 1.98144 13.9312 2.05672 13.8578Z" fill="#3F92D1"></path>
            <path d="M2.01913 13.3439C2.69668 12.6464 3.6377 12.1692 4.42817 11.6185C4.54109 11.5084 4.39053 11.3248 4.23996 11.435C3.4495 12.0223 2.62139 12.573 1.94385 13.2705C1.90621 13.3072 1.98149 13.3806 2.01913 13.3439Z" fill="#3F92D1"></path>
            <path d="M10.7143 17.6022C10.639 17.6756 10.752 17.8225 10.8649 17.7491C11.1284 17.5288 11.3166 17.1617 11.5048 16.868C11.7306 16.5009 11.9941 16.1338 12.22 15.73C12.2576 15.6933 12.1823 15.6566 12.1447 15.6933C11.9565 15.987 11.693 16.244 11.5048 16.5376C11.2413 16.868 11.0154 17.3085 10.7143 17.6022Z" fill="#3F92D1"></path>
            <path d="M10.6014 17.3821C10.9778 16.8314 11.4671 16.3542 11.8059 15.8035C11.8436 15.7301 11.7683 15.6934 11.7306 15.7668C11.3166 16.3175 10.7896 16.758 10.4132 17.3086C10.3379 17.3821 10.5261 17.4922 10.6014 17.3821Z" fill="#3F92D1"></path>
            <path d="M10.3379 17.1985C10.6014 16.9782 10.7896 16.6478 10.9778 16.3908C11.0154 16.3174 11.3166 16.0237 11.2789 15.9503C11.166 15.9503 11.0154 16.2073 10.9402 16.2807C10.7143 16.5377 10.4885 16.8681 10.225 17.0516C10.0744 17.125 10.225 17.3086 10.3379 17.1985Z" fill="#3F92D1"></path>
            <path d="M14.1774 20.2086C13.5375 20.9061 12.9352 21.6403 12.2577 22.3378C11.9189 22.7049 11.5801 22.9986 11.279 23.3657C11.1284 23.5492 10.9026 23.6961 10.8273 23.9163C10.3003 23.4758 9.73571 23.072 9.20873 22.5948C8.56883 22.0074 7.77837 21.6036 7.13847 21.053C7.10083 21.053 7.10083 21.053 7.10083 21.0897C7.51488 21.6036 8.11714 22.0441 8.68176 22.4479C9.39694 22.9619 10.1121 23.586 10.752 24.1733C10.8273 24.2467 10.9026 24.21 10.9402 24.1366C10.9779 24.1366 11.0155 24.0999 11.0155 24.0632C11.0908 23.7695 11.5801 23.4024 11.7683 23.2189C12.1071 22.8518 12.4835 22.5214 12.7846 22.1543C13.3116 21.5669 13.7633 20.9061 14.2903 20.3188C14.3279 20.2086 14.215 20.1352 14.1774 20.2086Z" fill="#3F92D1"></path>
            <path d="M9.1709 22.3012C9.62259 22.6683 10.1119 23.0721 10.5636 23.4392C10.6013 23.4759 10.6389 23.4759 10.7142 23.4759C10.7518 23.4759 10.7895 23.4759 10.8271 23.4392C11.7681 22.4113 13.0103 21.567 13.7631 20.3923C13.8008 20.3556 13.7255 20.2821 13.6878 20.3188C12.7092 21.2733 11.6552 22.1911 10.7142 23.1822C10.3378 22.8885 9.99901 22.5949 9.62259 22.3012C9.1709 21.9708 8.56864 21.6404 8.19223 21.2366C8.15459 21.1999 8.07931 21.2366 8.11695 21.31C8.26751 21.7505 8.79449 22.0075 9.1709 22.3012Z" fill="#3F92D1"></path>
            <path d="M9.69797 22.0441C10.0367 22.2277 10.3002 22.4847 10.6014 22.6682C10.6014 22.6682 10.639 22.6682 10.639 22.7049C10.6766 22.7049 10.7519 22.7049 10.7519 22.6682C11.0531 22.2644 11.4671 21.9707 11.8059 21.6036C12.107 21.3099 12.4458 21.053 12.6716 20.7226C12.7093 20.6859 12.634 20.6125 12.5963 20.6492C12.3329 20.9796 11.9188 21.2365 11.58 21.5302C11.2789 21.8239 10.9401 22.1176 10.639 22.448C10.4132 22.3011 10.1497 22.1176 9.92382 21.9707C9.66033 21.8239 9.3592 21.677 9.09571 21.4935C9.05807 21.4568 9.02043 21.4935 9.05807 21.5302C9.20864 21.7505 9.43448 21.8973 9.69797 22.0441Z" fill="#3F92D1"></path>
            <path d="M24.8674 7.61707C23.8135 7.91075 22.7219 8.27785 21.7056 8.71837C21.6303 8.75508 21.6679 8.8285 21.7432 8.8285C22.7972 8.4614 23.8511 8.16772 24.9051 7.80062C24.9804 7.76391 24.9804 7.61707 24.8674 7.61707Z" fill="#3F92D1"></path>
            <path d="M23.9263 8.388C22.8724 8.64497 21.8184 9.01207 20.8774 9.52601C20.8021 9.56272 20.8774 9.67285 20.9527 9.63614C21.9313 9.15891 22.9476 8.90194 24.0016 8.57155C24.0769 8.49813 24.0392 8.35129 23.9263 8.388Z" fill="#3F92D1"></path>
            <path d="M23.437 9.04883C22.0819 9.26909 20.7644 9.78303 19.4846 10.297C19.4094 10.3337 19.447 10.4438 19.5223 10.4071C20.8397 9.92987 22.1572 9.59948 23.4746 9.19567C23.5875 9.19567 23.5499 9.04883 23.437 9.04883Z" fill="#3F92D1"></path>
            <path d="M22.9101 9.78304C21.8185 10.1869 20.5763 10.5172 19.4094 10.7375C19.3342 10.7375 19.3718 10.8843 19.4471 10.8843C20.1623 10.7742 20.8398 10.5907 21.5173 10.4071C22.0067 10.2603 22.5337 10.1869 23.023 10.0033C23.0983 9.96659 23.023 9.74633 22.9101 9.78304Z" fill="#3F92D1"></path>
            <path d="M22.082 10.5539C21.1786 10.8476 20.2752 11.1046 19.4095 11.3983C19.2966 11.435 19.3342 11.5818 19.4471 11.5451C20.3505 11.2514 21.2915 11.0679 22.1573 10.7008C22.2326 10.6641 22.1573 10.5172 22.082 10.5539Z" fill="#3F92D1"></path>
            <path d="M21.2161 11.4349C20.2375 11.5451 19.3341 11.9489 18.4307 12.2426C18.3554 12.2793 18.393 12.3894 18.4683 12.3894C19.4094 12.0957 20.3127 11.802 21.2538 11.6185C21.329 11.5818 21.3291 11.4349 21.2161 11.4349Z" fill="#3F92D1"></path>
            <path d="M20.2751 12.316C19.4847 12.5362 18.6942 12.8299 17.9414 13.1603C17.8661 13.197 17.9414 13.2704 17.979 13.2704C18.7695 12.9768 19.5976 12.8299 20.3504 12.4995C20.4257 12.4261 20.3504 12.2793 20.2751 12.316Z" fill="#3F92D1"></path>
            <path d="M19.56 13.0503C18.8072 13.2705 18.0544 13.5275 17.3015 13.7845C17.2263 13.8212 17.2639 13.9313 17.3392 13.8946C18.092 13.6376 18.8448 13.4541 19.5976 13.1971C19.7106 13.1971 19.6729 13.0136 19.56 13.0503Z" fill="#3F92D1"></path>
            <path d="M19.1084 13.6743C18.3932 13.8578 17.7156 14.1515 17.0381 14.3718C16.9628 14.4085 17.0005 14.5186 17.0757 14.5186C17.7909 14.2983 18.4685 14.0781 19.1837 13.8578C19.2589 13.8211 19.2213 13.6376 19.1084 13.6743Z" fill="#3F92D1"></path>
            <path d="M17.9413 14.6288C17.4896 14.7389 17.0379 14.9592 16.5862 15.1427C16.5109 15.1794 16.5486 15.3263 16.6238 15.2896C17.0755 15.1427 17.5649 14.9959 18.0166 14.8123C18.0918 14.7756 18.0542 14.6288 17.9413 14.6288Z" fill="#3F92D1"></path>
            <path d="M17.0755 15.3996C16.7744 15.5097 16.4356 15.6199 16.1345 15.73C16.0592 15.7667 16.0592 15.9136 16.1721 15.8768C16.5109 15.8034 16.812 15.6933 17.1132 15.5832C17.2261 15.5464 17.1885 15.3629 17.0755 15.3996Z" fill="#3F92D1"></path>
            <path d="M16.4357 15.9871C16.3228 15.9871 16.2099 16.0605 16.1346 16.1339C16.0217 16.2073 15.9087 16.244 15.7958 16.2807C15.7582 16.2807 15.7582 16.3175 15.7958 16.3175C15.9087 16.3909 16.0217 16.3175 16.1346 16.2807C16.2475 16.244 16.3981 16.2073 16.511 16.1339C16.5486 16.0972 16.511 15.9871 16.4357 15.9871Z" fill="#3F92D1"></path>
            <path d="M25.3942 6.88288C24.1521 7.36011 22.8346 7.61708 21.5925 8.09431C21.5172 8.13102 21.5925 8.24115 21.6677 8.20444C22.9099 7.6905 24.2273 7.54366 25.4695 7.06643C25.5824 7.02972 25.5071 6.84617 25.3942 6.88288Z" fill="#3F92D1"></path>
            <path d="M25.5824 6.03864C24.5661 6.29561 23.5498 6.66271 22.5335 6.9931C22.4206 7.02981 22.4582 7.17665 22.5712 7.13994C23.5875 6.80955 24.6038 6.51587 25.6201 6.22219C25.7707 6.18548 25.6954 6.00193 25.5824 6.03864Z" fill="#3F92D1"></path>
            <path d="M25.8461 5.30433C25.1686 5.48788 24.491 5.70814 23.8135 5.89169C23.7382 5.9284 23.7759 6.03853 23.8511 6.03853C24.5287 5.89169 25.2439 5.74485 25.8838 5.52459C25.9967 5.41446 25.959 5.26762 25.8461 5.30433Z" fill="#3F92D1"></path>
            <path d="M24.7921 5.19422C25.1308 5.1208 25.4696 5.04738 25.8084 4.97396C25.9213 4.97396 25.8837 4.79041 25.7707 4.82712C25.432 4.90054 25.0932 4.97396 24.7544 5.08409C24.6791 5.08409 24.7168 5.19422 24.7921 5.19422Z" fill="#3F92D1"></path>
            <path d="M19.7858 6.07528C20.0869 5.59805 20.5762 5.19424 20.9527 4.79043C21.2914 4.42333 21.6302 3.98281 21.9313 3.579C22.6842 2.58783 23.3993 1.52323 24.2651 0.642191C24.378 0.532061 24.1898 0.348511 24.0769 0.458641C23.324 1.26626 22.6842 2.18401 22.0066 3.06506C21.5549 3.65242 21.1032 4.27649 20.6139 4.82714C20.2751 5.19424 19.8987 5.59805 19.6729 6.03857C19.6352 6.11199 19.7481 6.1487 19.7858 6.07528Z" fill="#3F92D1"></path>
            <path d="M19.8988 5.23097C20.5763 4.49677 21.1786 3.68915 21.8185 2.91824C22.1572 2.47772 22.5336 2.07391 22.9477 1.6701C23.2865 1.303 23.55 0.899185 23.8887 0.532084C24.0017 0.421954 23.8134 0.238404 23.7005 0.348534C23.3994 0.642214 23.1736 0.972605 22.9101 1.303C22.5713 1.6701 22.2325 2.00049 21.9314 2.4043C21.2162 3.32205 20.5763 4.27651 19.8235 5.15755C19.8235 5.19426 19.8611 5.26768 19.8988 5.23097Z" fill="#3F92D1"></path>
            <path d="M28.4431 3.10178C27.9162 2.66126 27.4645 2.03719 26.7869 1.85364C26.7116 1.85364 26.674 1.92706 26.7493 1.96377C27.3892 2.29416 27.9162 2.91823 28.4431 3.39546C28.9701 3.83598 29.4971 4.23979 29.9864 4.68031C30.0993 4.79044 30.2876 4.60689 30.1746 4.53347C29.61 4.01953 29.0454 3.5423 28.4431 3.10178Z" fill="#3F92D1"></path>
            <path d="M30.4006 4.05625C29.5349 3.43218 28.7821 2.58785 27.8787 2.00049C27.8034 1.96378 27.7281 2.0372 27.8034 2.11062C28.2175 2.47772 28.6315 2.88153 29.0832 3.24863C29.2714 3.39547 29.4596 3.54231 29.6478 3.65244C29.9113 3.83599 30.0619 4.05625 30.3254 4.2398C30.4006 4.38664 30.5512 4.16638 30.4006 4.05625Z" fill="#3F92D1"></path>
            <path d="M23.0229 12.059C22.1195 13.0869 21.1032 14.0046 20.2374 15.0325C19.334 16.0971 18.1672 16.9414 17.4143 18.1529C17.3767 18.1896 17.452 18.2263 17.452 18.1896C18.3554 17.125 19.4846 16.244 20.388 15.1794C21.2914 14.1515 22.3077 13.2337 23.1734 12.2058C23.2864 12.1324 23.1358 11.9489 23.0229 12.059Z" fill="#3F92D1"></path>
            <path d="M22.9477 12.7198C22.1196 13.5641 21.4044 14.4452 20.5763 15.2895C19.8611 15.987 19.1083 16.6111 18.5813 17.4921C18.5437 17.5288 18.6189 17.5655 18.6566 17.5288C19.2588 16.7579 20.0493 16.1338 20.7645 15.4363C21.5926 14.6287 22.3454 13.711 23.1359 12.8666C23.2112 12.7565 23.0606 12.6097 22.9477 12.7198Z" fill="#3F92D1"></path>
        </g>
        <defs>
            <clipPath id="clip0_7_453">
                <rect width="30" height="24.7059" fill="white" transform="translate(0.438232 0.311768)"></rect>
            </clipPath>
        </defs>
    </symbol>
</svg>
