<svg width="0" height="0" class="hidden">
    <symbol xmlns="http://www.w3.org/2000/svg" viewBox="0 0 22 22" id="united-kingdom">
        <g clip-path="url(#clip0_7_963)">
            <path d="M11.3696 21.9816C17.2273 21.9816 21.976 17.2329 21.976 11.3752C21.976 5.51744 17.2273 0.768799 11.3696 0.768799C5.51183 0.768799 0.763184 5.51744 0.763184 11.3752C0.763184 17.2329 5.51183 21.9816 11.3696 21.9816Z"
                  fill="#F0F0F0"></path>
            <path d="M2.95558 4.91782C2.12244 6.00178 1.49421 7.25114 1.12842 8.60838H6.64614L2.95558 4.91782Z"
                  fill="#0052B4"></path>
            <path d="M21.6104 8.60837C21.2446 7.25117 20.6164 6.00181 19.7833 4.91785L16.0928 8.60837H21.6104Z"
                  fill="#0052B4"></path>
            <path d="M1.12842 14.1422C1.49426 15.4994 2.12248 16.7487 2.95558 17.8326L6.64602 14.1422H1.12842Z"
                  fill="#0052B4"></path>
            <path d="M17.8268 2.96139C16.7428 2.12824 15.4935 1.50002 14.1362 1.13419V6.65187L17.8268 2.96139Z"
                  fill="#0052B4"></path>
            <path d="M4.91211 19.789C5.99607 20.6222 7.24543 21.2504 8.60264 21.6162V16.0986L4.91211 19.789Z"
                  fill="#0052B4"></path>
            <path d="M8.6026 1.13419C7.24539 1.50002 5.99603 2.12824 4.91211 2.96134L8.6026 6.65183V1.13419Z"
                  fill="#0052B4"></path>
            <path d="M14.1362 21.6162C15.4934 21.2504 16.7428 20.6222 17.8267 19.7891L14.1362 16.0986V21.6162Z"
                  fill="#0052B4"></path>
            <path d="M16.0928 14.1422L19.7833 17.8327C20.6164 16.7488 21.2446 15.4994 21.6104 14.1422H16.0928Z"
                  fill="#0052B4"></path>
            <path d="M21.8862 9.99176H12.7531H12.753V0.85858C12.3002 0.799624 11.8385 0.768799 11.3696 0.768799C10.9006 0.768799 10.439 0.799624 9.98615 0.85858V9.99168V9.99172H0.852965C0.794008 10.4446 0.763184 10.9063 0.763184 11.3752C0.763184 11.8441 0.794008 12.3058 0.852965 12.7586H9.98606H9.9861V21.8918C10.439 21.9508 10.9006 21.9816 11.3696 21.9816C11.8385 21.9816 12.3002 21.9508 12.753 21.8918V12.7587V12.7587H21.8862C21.9451 12.3058 21.976 11.8441 21.976 11.3752C21.976 10.9063 21.9451 10.4446 21.8862 9.99176Z"
                  fill="#D80027"></path>
            <path d="M14.1365 14.1421L18.8694 18.8751C19.0871 18.6575 19.2947 18.43 19.4929 18.1942L15.4408 14.1421H14.1365V14.1421Z"
                  fill="#D80027"></path>
            <path d="M8.6026 14.1422H8.60252L3.86963 18.875C4.08723 19.0927 4.31472 19.3004 4.55055 19.4985L8.6026 15.4464V14.1422Z"
                  fill="#D80027"></path>
            <path d="M8.60249 8.60839V8.60831L3.86955 3.87534C3.65187 4.09293 3.44422 4.32043 3.24609 4.55626L7.29819 8.60835H8.60249V8.60839Z"
                  fill="#D80027"></path>
            <path d="M14.1365 8.60839L18.8695 3.87537C18.6519 3.65769 18.4244 3.45004 18.1885 3.25195L14.1365 7.30405V8.60839Z"
                  fill="#D80027"></path>
        </g>
        <defs>
            <clipPath id="clip0_7_963">
                <rect fill="white" transform="translate(0.763184 0.768799)"></rect>
            </clipPath>
        </defs>
    </symbol>

    <symbol xmlns="http://www.w3.org/2000/svg" viewBox="0 0 11 8" id="arrow-down">
        <path d="M1.93933 0.58513C1.59066 0.156826 0.960791 0.0922732 0.532487 0.440948C0.104183 0.789622 0.0396304 1.41949 0.388305 1.84779L1.93933 0.58513ZM5.54199 6.59451L4.76648 7.22584C4.95638 7.45912 5.2412 7.59451 5.542 7.59451C5.8428 7.59451 6.12761 7.45911 6.31751 7.22583L5.54199 6.59451ZM10.6956 1.84778C11.0442 1.41947 10.9797 0.789608 10.5514 0.440939C10.1231 0.0922705 9.49319 0.156832 9.14452 0.585141L10.6956 1.84778ZM0.388305 1.84779L4.76648 7.22584L6.31751 5.96318L1.93933 0.58513L0.388305 1.84779ZM6.31751 7.22583L10.6956 1.84778L9.14452 0.585141L4.76647 5.96319L6.31751 7.22583Z"
        ></path>
    </symbol>

    <symbol xmlns="http://www.w3.org/2000/svg" viewBox="0 0 40 35" id="cross">
        <path opacity="0.3"
              d="M35.6823 1.27952C29.7823 2.67952 25.3823 8.17952 20.7823 11.7795C20.4823 12.0795 20.0823 12.2795 19.7823 12.5795C16.4823 8.97952 12.8823 5.57952 9.58232 1.97952C6.78232 -1.02048 1.88232 3.37952 4.28232 6.67952C7.08232 10.4795 10.6823 13.6795 14.1823 17.0795C9.88232 20.4795 5.58232 24.0795 1.58232 27.7795C-0.41768 28.6795 0.98232 32.8795 3.58232 31.3795C8.68232 28.3795 13.5823 24.8795 18.3823 21.2795C22.7823 26.2795 27.3823 31.1795 33.5823 33.8795C35.6823 34.7795 37.5823 32.1795 35.7823 30.5795C31.3823 26.5795 27.6823 21.8795 23.8823 17.2795C28.5823 13.7795 32.8823 10.0795 38.1823 7.37952C41.5823 5.57952 39.2823 0.479521 35.6823 1.27952Z"
        ></path>
    </symbol>

    <symbol xmlns="http://www.w3.org/2000/svg" viewBox="0 0 297 526" id="phone">
        <g clip-path="url(#clip0_7_20)">
            <path opacity="0.2"
                  d="M189.042 522.677L274.929 475.799C281.836 471.726 281.023 464.599 272.898 459.915L126.851 376.42C118.726 371.736 106.539 371.329 99.4294 375.198L13.5416 422.076C6.63536 426.149 7.44786 433.276 15.5729 437.96L161.62 521.455C169.745 526.343 181.932 526.75 189.042 522.677Z"
                  fill="#92B4D1"></path>
            <path d="M174.62 514.124L40.1509 436.331C24.9166 427.574 12.7291 403.951 12.7291 383.587V24.1509C12.7291 13.7649 4.19782 11.5248 9.47907 7.85918C9.68219 7.65554 21.4634 2.36073 21.6666 2.15709C27.1509 0.120625 33.0416 -0.897606 40.1509 3.17532L174.62 80.9682C189.854 89.725 202.042 113.348 202.042 133.713V492.945C202.042 503.738 198.588 511.476 193.104 514.938C192.698 515.142 178.479 521.862 178.073 522.066C173.198 523.899 181.323 517.789 174.62 514.124Z"
                  fill="#516372"></path>
            <path d="M164.057 518.808L29.5884 441.015C14.354 432.258 2.1665 408.635 2.1665 388.27V29.0384C2.1665 8.67376 14.354 -0.490318 29.5884 8.26647L164.057 86.0593C179.291 94.8161 191.479 118.439 191.479 138.804V498.036C191.682 518.197 179.291 527.564 164.057 518.808Z"
                  fill="white"></path>
            <path d="M161.823 520.03L27.354 442.237C12.1196 433.48 -0.270996 409.857 -0.270996 389.492V30.2603C-0.270996 10.0993 12.1196 0.731572 27.1509 9.48836L161.62 87.2812C176.854 96.038 189.041 119.661 189.041 140.026V499.258C189.245 519.622 176.854 528.99 161.823 520.03Z"
                  fill="#6A737B"></path>
            <path d="M170.963 516.16C168.323 516.16 165.479 515.346 162.432 513.513L28.5728 436.127C15.979 428.796 5.82275 409.042 5.82275 391.936V32.2967C5.82275 20.8925 10.4946 13.3576 18.0103 13.3576C20.6509 13.3576 23.4946 14.1722 26.5415 16.005L160.401 93.3906C172.995 100.722 183.354 120.476 183.354 137.582V497.425C183.151 508.829 178.479 516.16 170.963 516.16Z"
                  fill="#B0BCC8"></path>
            <path d="M8.86963 394.176V36.3697C8.86963 21.5035 17.8071 14.5795 28.979 21.0962L159.995 96.8526C171.166 103.369 180.104 120.679 180.104 135.545V493.352C180.104 508.218 171.166 515.142 159.995 508.625L28.979 432.869C17.8071 426.352 8.86963 409.042 8.86963 394.176Z"
                  fill="#A5A9AD"></path>
            <path d="M11.5103 392.14L177.463 488.261V182.384L11.5103 86.4666V392.14Z" fill="#F5FBFF"></path>
            <path d="M148.213 116.199L164.87 125.77C165.479 126.178 166.088 125.77 166.088 125.159C166.088 124.345 165.479 123.53 164.87 123.123L148.213 113.552C147.604 113.144 146.995 113.552 146.995 114.163C147.198 114.977 147.604 115.792 148.213 116.199ZM164.87 129.232L148.213 119.661C147.604 119.254 146.995 119.661 146.995 120.272C146.995 121.086 147.604 121.901 148.213 122.308L164.87 131.88C165.479 132.287 166.088 131.88 166.088 131.269C166.088 130.454 165.479 129.436 164.87 129.232ZM164.87 135.138L148.213 125.567C147.604 125.159 146.995 125.567 146.995 126.178C146.995 126.992 147.604 127.807 148.213 128.214L164.87 137.785C165.479 138.193 166.088 137.785 166.088 137.175C166.088 136.36 165.479 135.545 164.87 135.138Z"
                  fill="white"></path>
            <path d="M46.4478 58.7707C46.4478 60.6035 45.229 61.2145 43.604 60.3999C41.979 59.5853 40.7603 57.3452 40.7603 55.716C40.7603 53.8832 41.979 53.2723 43.604 54.0869C45.229 54.9014 46.4478 56.9379 46.4478 58.7707Z"
                  fill="white"></path>
            <path d="M38.1196 53.8832C38.1196 55.716 36.9009 56.327 35.2759 55.5124C33.6509 54.6978 32.4321 52.4577 32.4321 50.8285C32.4321 48.9957 33.6509 48.3848 35.2759 49.1993C36.9009 50.0139 38.1196 52.0504 38.1196 53.8832Z"
                  fill="white"></path>
            <path d="M29.7915 48.9957C29.7915 50.8285 28.5728 51.4395 26.9478 50.6249C25.3228 49.8103 24.104 47.5702 24.104 45.941C24.104 44.1082 25.3228 43.4973 26.9478 44.3119C28.5728 45.1264 29.7915 47.1629 29.7915 48.9957Z"
                  fill="white"></path>
            <path d="M100.276 332.268C100.276 316.791 89.3071 297.851 75.9009 289.909C69.4009 286.244 63.5103 285.633 59.0415 287.873L52.9478 291.335L54.7759 294.389C53.9634 296.63 53.5571 299.481 53.5571 302.535C53.5571 318.012 64.5259 336.952 77.9321 344.894C80.7759 346.523 83.4165 347.541 85.854 347.948L87.6821 351.003L92.5571 348.356C97.229 345.912 100.276 340.413 100.276 332.268Z"
                  fill="#C5C5C5"></path>
            <path d="M88.0419 350.787C97.5329 345.224 97.4242 327.334 87.799 310.827C78.1739 294.321 62.6771 285.45 53.186 291.013C43.695 296.575 43.8037 314.466 53.4289 330.972C63.0541 347.479 78.5508 356.35 88.0419 350.787Z"
                  fill="white"></path>
            <path d="M42.5884 335.933C42.1821 335.933 41.979 335.73 41.7759 335.322C41.1665 334.1 40.5571 332.879 39.9478 331.657C39.7446 331.249 39.9478 330.638 40.354 330.231C40.7603 330.028 41.3696 330.231 41.7759 330.638C42.3853 331.86 42.9946 333.082 43.604 334.304C43.8071 334.711 43.604 335.322 43.1978 335.73C42.7915 335.933 42.7915 335.933 42.5884 335.933ZM38.3228 326.769C37.9165 326.769 37.5103 326.566 37.3071 326.158C36.9009 324.936 36.2915 323.511 36.0884 322.289C35.8853 321.678 36.2915 321.271 36.6978 321.067C37.3071 320.863 37.7134 321.271 37.9165 321.678C38.3228 322.9 38.729 324.122 39.1353 325.547C39.3384 326.158 39.1353 326.566 38.5259 326.769C38.5259 326.769 38.5259 326.769 38.3228 326.769ZM35.6821 316.994C35.2759 316.994 34.8696 316.587 34.6665 316.18C34.4634 314.754 34.2603 313.329 34.0571 312.107C34.0571 311.496 34.4634 311.088 34.8696 311.088C35.479 311.088 35.8853 311.496 35.8853 311.903C36.0884 313.125 36.2915 314.55 36.4946 315.772C36.6978 316.18 36.2915 316.791 35.6821 316.994Z"
                  fill="#A8CFF0"></path>
            <path d="M87.6727 351.11C97.1638 345.547 97.0551 327.656 87.4299 311.15C77.8047 294.644 62.3079 285.772 52.8169 291.335C43.3259 296.898 43.4346 314.789 53.0598 331.295C62.6849 347.801 78.1817 356.673 87.6727 351.11Z"
                  fill="#3F92D1"></path>
            <path d="M69.4009 301.721C61.0728 296.833 54.3696 300.703 54.3696 310.274C54.3696 319.438 60.4634 330.435 68.3853 335.526V344.079L74.8853 338.173C80.5728 338.988 84.4321 334.915 84.4321 327.584C84.4321 318.012 77.729 306.405 69.4009 301.721ZM63.3071 317.198C62.4946 317.809 60.8696 316.791 60.0571 315.365C59.2446 313.736 59.2446 312.107 60.0571 311.496C60.8696 310.885 62.4946 311.903 63.3071 313.329C64.3228 314.958 64.3228 316.791 63.3071 317.198ZM71.0259 321.678C70.2134 322.289 68.5884 321.271 67.7759 319.845C66.9634 318.216 66.9634 316.587 67.7759 315.976C68.5884 315.365 70.2134 316.383 71.0259 317.809C71.8384 319.438 71.8384 321.067 71.0259 321.678ZM78.5415 325.955C77.729 326.566 76.104 325.547 75.2915 324.122C74.479 322.493 74.479 320.863 75.2915 320.253C76.104 319.642 77.729 320.66 78.5415 322.085C79.5571 323.918 79.5571 325.547 78.5415 325.955Z"
                  fill="white"></path>
            <path d="M151.057 238.183C151.057 222.706 140.088 203.767 126.682 195.825C120.182 192.159 114.292 191.548 109.823 193.788L103.729 197.25L105.557 200.305C104.745 202.545 104.338 205.396 104.338 208.451C104.338 223.928 115.307 242.867 128.713 250.809C131.557 252.438 134.198 253.457 136.635 253.864L138.463 256.919L143.338 254.271C148.01 252.031 151.057 246.329 151.057 238.183Z"
                  fill="#C5C5C5"></path>
            <path d="M138.881 256.879C148.372 251.317 148.263 233.426 138.638 216.92C129.012 200.413 113.516 191.542 104.025 197.105C94.5336 202.668 94.6423 220.558 104.268 237.065C113.893 253.571 129.389 262.442 138.881 256.879Z"
                  fill="white"></path>
            <path d="M131.963 270.563C130.542 270.563 129.12 270.359 127.698 270.156C127.088 270.156 126.682 269.545 126.885 268.934C126.885 268.323 127.495 267.915 128.104 268.119C129.323 268.323 130.745 268.323 131.963 268.323C132.573 268.323 132.979 268.73 132.979 269.341C132.979 269.952 132.37 270.563 131.963 270.563ZM122.01 268.934C121.807 268.934 121.807 268.934 121.604 268.934C120.385 268.526 118.963 267.915 117.745 267.305C117.338 267.101 116.932 266.49 117.338 265.879C117.542 265.472 118.151 265.064 118.76 265.472C119.979 266.083 121.198 266.49 122.417 267.101C123.026 267.305 123.229 267.915 123.026 268.323C122.823 268.526 122.417 268.934 122.01 268.934ZM112.87 264.25C112.667 264.25 112.463 264.25 112.26 264.046C111.042 263.232 110.026 262.417 109.01 261.602C108.604 261.195 108.401 260.584 108.807 260.177C109.213 259.77 109.823 259.566 110.229 259.973C111.245 260.788 112.463 261.602 113.479 262.417C113.885 262.824 114.088 263.435 113.682 263.843C113.479 264.046 113.276 264.25 112.87 264.25ZM105.151 257.733C104.948 257.733 104.542 257.733 104.338 257.529C103.323 256.511 102.51 255.493 101.495 254.475C101.088 254.068 101.088 253.457 101.495 253.049C101.901 252.642 102.51 252.642 102.917 253.049C103.729 254.068 104.745 255.086 105.76 255.9C106.167 256.308 106.167 256.919 105.76 257.326C105.557 257.733 105.354 257.733 105.151 257.733ZM98.4478 249.995C98.0415 249.995 97.8384 249.791 97.6353 249.587C96.8228 248.569 96.0103 247.347 95.1978 246.125C94.7915 245.718 94.9946 245.107 95.4009 244.7C95.8071 244.496 96.4165 244.496 96.8228 244.903C97.6353 246.125 98.2446 247.144 99.0571 248.162C99.4634 248.569 99.2603 249.18 98.854 249.587C98.854 249.995 98.6509 249.995 98.4478 249.995ZM92.9634 241.441C92.5571 241.441 92.1509 241.238 92.1509 240.83C91.5415 239.609 90.9321 238.387 90.3228 237.165C90.1196 236.554 90.3228 236.147 90.729 235.739C91.3384 235.536 91.7446 235.739 92.1509 236.147C92.7603 237.369 93.3696 238.59 93.979 239.812C94.1821 240.22 93.979 240.83 93.5728 241.238C93.3696 241.441 93.1665 241.441 92.9634 241.441ZM88.9009 232.074C88.4946 232.074 88.0884 231.87 87.8853 231.463C87.479 230.241 87.0728 228.815 86.6665 227.593C86.4634 226.983 86.8696 226.575 87.2759 226.372C87.8853 226.168 88.2915 226.575 88.4946 226.983C88.9009 228.204 89.3071 229.63 89.7134 230.852C89.9165 231.463 89.7134 231.87 89.104 232.074C89.104 232.074 89.104 232.074 88.9009 232.074ZM86.2603 222.299C85.854 222.299 85.4478 221.891 85.2446 221.484C85.0415 220.059 84.8384 218.633 84.6353 217.411C84.6353 216.8 85.0415 216.393 85.6509 216.393C86.2603 216.393 86.6665 216.8 86.6665 217.411C86.8696 218.633 86.8696 220.059 87.2759 221.28C87.2759 221.688 87.0728 222.299 86.2603 222.299C86.4634 222.299 86.2603 222.299 86.2603 222.299Z"
                  fill="#A8CFF0"></path>
            <path d="M138.409 257.026C147.9 251.463 147.792 233.572 138.166 217.066C128.541 200.56 113.045 191.688 103.553 197.251C94.0624 202.814 94.1712 220.704 103.796 237.211C113.421 253.717 128.918 262.589 138.409 257.026Z"
                  fill="#3F92D1"></path>
            <path d="M120.792 233.907C124.651 236.147 127.698 234.314 127.698 229.834V217.411C127.698 212.931 124.448 207.433 120.792 205.396C116.932 203.156 113.885 204.989 113.885 209.469V221.891C113.682 226.372 116.932 231.666 120.792 233.907Z"
                  fill="white"></path>
            <path d="M130.948 227.39C130.338 226.983 129.729 227.39 129.729 228.001V231.055C129.729 236.758 125.666 239.201 120.588 236.147C115.51 233.296 111.448 226.168 111.448 220.466V217.411C111.448 216.597 110.838 215.782 110.229 215.375C109.62 214.967 109.01 215.375 109.01 215.986V219.04C109.01 225.557 113.276 233.499 118.76 237.572V243.478C117.338 243.274 116.526 244.089 116.526 245.718L124.651 250.402C124.651 248.773 123.635 246.94 122.417 245.514V239.609C127.901 241.849 132.166 238.794 132.166 232.277V229.223C132.166 228.612 131.557 227.797 130.948 227.39Z"
                  fill="white"></path>
            <path d="M86.8696 203.563L61.6821 165.889L60.4634 167.314L61.6821 179.94L27.1509 159.983L25.9321 161.408L26.9478 177.904L61.479 197.861V211.913L85.6509 204.785L86.8696 203.563Z"
                  fill="#0091C8"></path>
            <path d="M85.6509 204.785L60.4634 167.111V181.162L25.9321 161.205V179.126L60.4634 199.083V213.135L85.6509 204.785Z"
                  fill="#41B4E6"></path>
            <g opacity="0.5">
                <path opacity="0.5" d="M85.4478 204.989L85.6509 204.785L60.4634 167.111V167.721L85.4478 204.989Z"
                      fill="white"></path>
                <path opacity="0.5" d="M60.4634 181.569V181.162L25.9321 161.205V161.612L60.4634 181.569Z"
                      fill="white"></path>
            </g>
            <path d="M104.948 337.359L103.932 338.784L128.917 376.052L130.135 375.033V360.982L163.651 382.365L164.87 381.143V363.018L130.338 343.061V329.009L104.948 337.359Z"
                  fill="#0091C8"></path>
            <path d="M103.729 338.581L128.917 376.255V362.204L163.448 382.161V364.24L128.917 344.283V330.231L103.729 338.581Z"
                  fill="#41B4E6"></path>
            <g opacity="0.5">
                <path opacity="0.5"
                      d="M128.917 344.283V330.231L103.729 338.581L103.932 338.988L128.917 330.639V344.69L163.448 364.647V382.161V364.24L128.917 344.283Z"
                      fill="white"></path>
            </g>
            <path d="M74.8853 393.362C74.8853 404.562 82.8071 418.41 92.5571 424.112C95.1978 425.741 97.8384 426.556 100.276 426.556C105.76 426.556 109.213 422.076 109.213 414.744C109.213 403.544 101.292 389.696 91.5415 383.994C88.9009 382.365 86.2603 381.55 83.8228 381.55C78.3384 381.55 74.8853 386.03 74.8853 393.362Z"
                  fill="white"></path>
            <path d="M92.7603 425.334C82.4009 419.225 73.0571 403.544 73.0571 391.529C73.0571 382.976 79.9634 377.884 86.8696 377.884C89.7134 377.884 92.5571 378.699 95.604 380.532C105.963 386.641 114.495 401.304 114.495 413.115C114.495 421.668 107.385 428.389 100.682 428.389C97.8384 428.389 95.8071 426.963 92.7603 425.334ZM76.104 392.547C76.104 403.747 84.0259 417.595 93.7759 423.298C96.4165 424.927 99.0571 425.741 101.495 425.741C106.979 425.741 110.432 421.261 110.432 413.93C110.432 402.729 102.51 388.881 92.7603 383.179C90.1196 381.55 87.479 380.735 85.0415 380.735C79.5571 380.735 76.104 385.216 76.104 392.547Z"
                  fill="#C5C5C5"></path>
            <path d="M91.7446 425.945C81.3853 419.836 72.854 405.173 72.854 393.362C72.854 384.808 77.3228 379.31 84.0259 379.31C86.8696 379.31 89.7134 380.125 92.7603 381.957C103.12 388.067 111.651 402.729 111.651 414.541C111.651 423.094 107.182 428.592 100.479 428.592C97.8384 428.592 94.7915 427.778 91.7446 425.945ZM75.0884 393.362C75.0884 404.562 83.0103 418.41 92.7603 424.112C95.4009 425.741 98.0415 426.556 100.479 426.556C105.963 426.556 109.417 422.076 109.417 414.744C109.417 403.544 101.495 389.696 91.7446 383.994C89.104 382.365 86.4634 381.55 84.0259 381.55C78.5415 381.346 75.0884 386.03 75.0884 393.362Z"
                  fill="white"></path>
            <path d="M91.5415 426.149C81.1821 420.039 72.6509 405.377 72.6509 393.565C72.6509 385.012 77.1196 379.514 83.8228 379.514C86.6665 379.514 89.5103 380.328 92.5571 382.161C102.917 388.27 111.448 402.933 111.448 414.744C111.448 423.297 106.979 428.796 100.276 428.796C97.4321 428.796 94.5884 427.981 91.5415 426.149ZM74.8853 393.361C74.8853 404.562 82.8071 418.41 92.5571 424.112C95.1978 425.741 97.8384 426.556 100.276 426.556C105.76 426.556 109.213 422.076 109.213 414.744C109.213 403.544 101.292 389.696 91.5415 383.994C88.9009 382.365 86.2603 381.55 83.8228 381.55C78.3384 381.55 74.8853 386.03 74.8853 393.361Z"
                  fill="#F47892"></path>
            <path d="M82.4008 399.064L89.3071 414.133L102.307 400.489C102.713 400.082 102.51 398.86 101.698 398.045L97.8383 394.38C97.2289 393.972 96.8227 393.769 96.4164 394.176L89.5102 405.988L86.4633 398.656C86.2602 398.045 85.6508 397.434 85.0415 397.434L83.0102 397.027C82.4008 397.434 81.9946 398.249 82.4008 399.064Z"
                  fill="#C5C5C5"></path>
            <path d="M81.7915 399.471L88.6977 414.541L101.698 400.896C102.104 400.489 101.901 399.267 101.088 398.453L97.229 394.787C96.6196 394.38 96.2134 394.176 95.8071 394.583L88.9009 406.395L85.854 399.064C85.6509 398.453 85.0415 397.842 84.4321 397.842L82.4009 397.434C81.5884 397.638 81.3853 398.656 81.7915 399.471Z"
                  fill="#F47892"></path>
            <path opacity="0.3"
                  d="M295.043 330.531C289.143 331.931 284.743 337.431 280.143 341.031C279.843 341.331 279.443 341.531 279.143 341.831C275.843 338.231 272.243 334.831 268.943 331.231C266.143 328.231 261.243 332.631 263.643 335.931C266.443 339.731 270.043 342.931 273.543 346.331C269.243 349.731 264.943 353.331 260.943 357.031C258.943 357.931 260.343 362.131 262.943 360.631C268.043 357.631 272.943 354.131 277.743 350.531C282.143 355.531 286.743 360.431 292.943 363.131C295.043 364.031 296.943 361.431 295.143 359.831C290.743 355.831 287.043 351.131 283.243 346.531C287.943 343.031 292.243 339.331 297.543 336.631C300.943 334.831 298.643 329.731 295.043 330.531Z"
                  fill="white"></path>
            <path opacity="0.3"
                  d="M270.513 113.592C266.494 114.545 263.497 118.291 260.364 120.744C260.159 120.948 259.887 121.084 259.682 121.288C257.435 118.836 254.983 116.52 252.735 114.068C250.828 112.025 247.49 115.022 249.125 117.27C251.032 119.858 253.484 122.038 255.868 124.354C252.939 126.67 250.01 129.122 247.286 131.642C245.923 132.255 246.877 135.116 248.648 134.094C252.122 132.051 255.459 129.667 258.729 127.214C261.726 130.62 264.859 133.958 269.082 135.797C270.513 136.41 271.807 134.639 270.581 133.549C267.584 130.825 265.063 127.623 262.475 124.49C265.677 122.106 268.605 119.586 272.216 117.747C274.531 116.52 272.965 113.047 270.513 113.592Z"
                  fill="white"></path>
        </g>
        <defs>
            <clipPath id="clip0_7_20">
                <rect width="296" height="525" fill="white" transform="translate(0.170654 0.752533)"></rect>
            </clipPath>
        </defs>
    </symbol>

    <symbol xmlns="http://www.w3.org/2000/svg" viewBox="0 0 71 71" id="russia">
        <g clip-path="url(#clip0_7_78)">
            <path d="M35.4097 70.598C54.7396 70.598 70.4097 54.9279 70.4097 35.598C70.4097 16.268 54.7396 0.597961 35.4097 0.597961C16.0797 0.597961 0.409668 16.268 0.409668 35.598C0.409668 54.9279 16.0797 70.598 35.4097 70.598Z"
                  fill="#F0F0F0"></path>
            <path d="M68.2327 47.7718C69.6397 43.9802 70.4097 39.8792 70.4097 35.598C70.4097 31.3168 69.6397 27.2157 68.2327 23.4241H2.58664C1.1798 27.2157 0.409668 31.3168 0.409668 35.598C0.409668 39.8792 1.1798 43.9802 2.58664 47.7718L35.4097 50.8153L68.2327 47.7718Z"
                  fill="#0052B4"></path>
            <path d="M35.4097 70.598C50.4585 70.598 63.2875 61.0998 68.2327 47.7718H2.58667C7.53192 61.0998 20.3609 70.598 35.4097 70.598Z"
                  fill="#D80027"></path>
        </g>
        <defs>
            <clipPath id="clip0_7_78">
                <rect width="70" height="70" fill="white" transform="translate(0.409668 0.597961)"></rect>
            </clipPath>
        </defs>
    </symbol>

    <symbol xmlns="http://www.w3.org/2000/svg" viewBox="0 0 200 165" id="tags">
        <path d="M150.657 29.8737C148.588 30.197 145.486 30.6821 143.417 31.0054C142.383 31.1671 140.477 32.5312 139.606 33.7337C139.443 32.6929 140.315 31.4905 142.383 31.1671C135.143 32.2989 127.741 32.3898 121.536 33.3599C112.065 33.7742 101.723 35.391 92.2523 35.8053C87.9527 35.4113 84.85 35.8963 82.7815 36.2197C81.7473 36.3813 79.6789 36.7047 78.6447 36.8664C77.6104 37.0281 75.542 37.3514 74.3451 36.4723L74.1824 35.4315C75.0539 34.229 76.2508 35.1081 77.285 34.9465C78.3192 34.7848 79.3535 34.6231 81.4219 34.2997C83.4904 33.9764 86.593 33.4913 88.6615 33.168C93.9953 33.4004 98.1322 32.7537 103.466 32.9861C113.808 31.3693 123.279 30.9549 133.784 30.3789C137.921 29.7322 142.22 30.1263 147.391 29.3179L148.426 29.1562L149.46 28.9945C151.528 28.6712 151.691 29.712 150.657 29.8737Z"
              fill="white"></path>
        <path d="M156.421 39.6349C151.25 40.4433 146.078 41.2517 140.745 41.0193C135.574 41.8277 130.24 41.5953 125.069 42.4037C114.564 42.9797 104.059 43.5557 92.6823 45.3342C86.477 46.3042 80.1089 46.2335 74.9378 47.0419C73.9036 47.2036 73.5782 45.122 74.6124 44.9603C79.7835 44.1519 85.1173 44.3843 90.2884 43.5759C95.4596 42.7675 100.793 42.9999 105.964 42.1915C116.469 41.6155 126.974 41.0395 138.513 40.3018C142.65 39.6551 147.821 38.8467 152.121 39.2408C153.155 39.0791 155.224 38.7558 156.421 39.6349C156.258 38.5941 156.258 38.5941 156.421 39.6349C156.258 38.5941 156.258 38.5941 156.421 39.6349C156.258 38.5941 156.421 39.6349 156.421 39.6349Z"
        ></path>
        <path d="M71.9399 54.9742C75.0426 54.4891 78.1453 54.0041 81.4106 54.5599C84.5133 54.0748 87.616 53.5898 89.8471 54.3072C96.0525 53.3371 101.224 52.5287 107.592 52.5995C119.131 51.8618 130.67 51.1241 142.209 50.3864C148.414 49.4163 155.817 49.3254 162.185 49.3961L162.347 50.4369C161.313 50.5986 161.313 50.5986 160.279 50.7602C155.108 51.5686 149.774 51.3362 144.603 52.1446C138.398 53.1147 133.064 52.8823 126.858 53.8524C115.157 53.5493 103.617 54.287 92.0783 55.0246C88.9756 55.5097 85.7102 54.9539 82.6076 55.439C79.5049 55.924 76.4022 56.4091 72.1026 56.015C71.2311 57.2174 70.9057 55.1359 71.9399 54.9742Z"
        ></path>
        <path d="M20.7991 114.148C23.797 106.216 32.6169 101.638 40.5652 98.2633C49.5478 94.7266 59.89 93.1098 70.2323 91.493C73.3349 91.0079 77.6345 91.402 80.8999 91.9578C73.1722 89.9671 65.4446 87.9765 60.3314 82.3785C56.7406 79.7411 55.0556 75.7396 53.3705 71.7381C51.6855 67.7366 51.0347 63.5735 51.4181 59.2486C52.1848 50.5989 55.1828 42.6666 61.4461 35.2901C65.8037 29.2777 74.4609 23.6595 83.6062 21.1635C100.537 14.2518 121.384 12.059 139.942 15.5552C148.704 17.3842 157.791 21.2947 166.007 26.4077C174.223 31.5207 180.859 40.0795 180.254 49.77C180.58 51.8516 179.708 53.054 179 55.2973C179 55.2973 179 55.2973 179.162 56.3381C175.293 65.4728 166.961 73.1727 157.978 76.7094C162.22 83.5099 166.462 90.3105 171.738 96.9493C171.9 97.9901 171.029 99.1926 169.994 99.3542C160.744 94.4029 151.494 89.4516 142.082 83.4595C126.348 91.2503 108.929 95.0397 91.7303 93.4634C96.1926 94.8982 99.4579 95.454 102.886 97.0505C103.92 96.8889 103.049 98.0913 103.049 98.0913C104.083 97.9296 105.28 98.8088 106.314 98.6471C109.905 101.284 113.496 103.922 117.086 106.559C120.677 109.196 122.362 113.198 124.047 117.199C124.698 121.363 124.152 124.647 123.769 128.972C119.516 142.431 106.722 148.696 93.2769 150.798C97.4138 150.151 102.585 149.343 106.559 147.655C108.628 147.332 110.533 145.968 112.602 145.644C113.636 145.483 114.67 145.321 115.542 144.119C116.576 143.957 117.447 142.754 118.482 142.593C118.482 142.593 118.482 142.593 118.644 143.634C117.773 144.836 117.773 144.836 116.739 144.998C115.704 145.159 114.833 146.362 113.799 146.524C111.893 147.888 109.824 148.211 107.756 148.534C103.782 150.222 99.6449 150.869 95.6707 152.556C87.5597 154.89 79.1232 155.143 70.524 154.355C68.4555 154.678 66.2244 153.961 62.959 153.405C60.7279 152.688 58.6594 153.011 56.4283 152.294C55.394 152.455 56.1029 150.212 57.2998 151.091C59.3682 150.768 61.5994 151.485 63.8305 152.203C66.0617 152.92 68.1301 152.597 70.3613 153.314C74.6609 153.708 78.9605 154.102 82.0631 153.617C85.1658 153.132 89.3027 152.485 92.4054 152C88.2685 152.647 84.1316 153.294 79.832 152.9C69.3271 153.476 59.5309 151.809 49.5721 149.101C49.026 152.385 49.6768 156.548 50.165 159.67C50.4904 161.752 48.4219 162.075 48.0965 159.993C47.4457 155.83 44.7264 151.99 41.1356 149.353C37.5448 146.716 33.954 144.078 30.3633 141.441C21.6593 133.206 16.9296 123.283 20.7991 114.148ZM135.876 84.4295C137.782 83.0654 139.688 81.7012 141.756 81.3779L142.791 81.2162C149.972 86.4909 156.828 89.684 164.881 93.7562C161.837 87.8348 158.955 82.9542 154.876 77.1945C154.713 76.1537 154.55 75.1129 155.585 74.9512C165.601 71.2528 172.899 63.7146 176.606 53.5391L177.64 53.3774C178.023 49.0525 178.569 45.7685 176.884 41.767C175.199 37.7655 172.48 33.9257 168.889 31.2883C161.545 24.9728 153.655 21.9414 144.73 19.0717C127.043 14.373 107.068 15.3633 89.8115 20.1935C73.5893 24.8619 57.1465 34.896 52.673 53.7213C50.7092 61.4919 52.0109 69.8182 57.2867 76.4571C62.5626 83.0959 70.6157 87.1681 78.3433 89.1588C87.1052 90.9877 96.7387 91.6142 106.209 91.1998C116.714 90.6238 126.894 87.9663 135.876 84.4295ZM46.6321 150.626C46.3067 148.545 46.144 147.504 46.8528 145.261C46.6901 144.22 47.7243 144.058 48.7586 143.897C57.6832 146.766 66.2824 147.554 75.9158 148.181C84.3523 147.928 93.823 147.514 101.934 145.18C109.011 143.007 116.797 138.591 120.991 131.538C124.152 124.647 125.082 117.038 119.806 110.399C117.086 106.559 112.461 104.083 108.871 101.446C103.374 100.173 98.7491 97.6972 93.578 98.5056L93.4153 97.4649C94.4495 97.3032 96.6807 98.0206 97.7149 97.8589C94.4495 97.3032 91.0215 95.7066 87.7561 95.1509C83.4565 94.7568 78.1227 94.5244 72.7888 94.292C63.3181 94.7063 53.1386 97.3639 43.9933 99.8598C36.9165 102.032 27.9339 105.569 23.739 112.622C19.7068 120.716 23.4024 130.801 29.5497 136.237C34.6629 141.835 42.5532 144.867 46.6321 150.626Z"
        ></path>
        <path d="M108.65 106.812C106.582 107.135 104.513 107.458 102.282 106.741C100.213 107.064 97.9823 106.347 95.9139 106.67C91.6143 106.276 86.4432 107.085 82.1436 106.691C72.6729 107.105 64.0737 106.317 54.603 106.731C52.5345 107.054 49.2692 106.499 47.2007 106.822C45.1323 107.145 41.8669 106.59 39.7985 106.913C38.7642 107.075 38.4388 104.993 39.473 104.831C41.5415 104.508 43.7726 105.225 45.8411 104.902C48.0722 105.62 50.1407 105.296 52.2091 104.973C56.5087 105.367 61.6798 104.559 65.9794 104.953C75.4501 104.538 84.0493 105.326 93.52 104.912C95.5885 104.589 98.8538 105.144 100.922 104.821C102.991 104.498 106.256 105.054 108.325 104.73C109.521 105.609 109.684 106.65 108.65 106.812Z"
        ></path>
        <path d="M98.4123 115.876C93.0785 115.643 88.9416 116.29 83.6078 116.058C74.1371 116.472 63.4695 116.007 53.9988 116.422C50.7334 115.866 47.6307 116.351 45.5623 116.674C42.4596 117.159 39.1942 116.603 37.1258 116.927C36.0916 117.088 35.7662 115.007 36.8004 114.845C38.8688 114.522 42.1342 115.078 44.2026 114.754C46.2711 114.431 49.5365 114.987 51.6049 114.663C56.9387 114.896 61.0756 114.249 66.4094 114.481C75.8801 114.067 86.5478 114.532 96.0185 114.118C99.1211 113.632 101.352 114.35 104.455 113.865C105.489 113.703 107.558 113.38 108.755 114.259C109.789 114.097 111.857 113.774 113.054 114.653C114.088 114.491 114.251 115.532 113.217 115.694C111.148 116.017 108.046 116.502 105.815 115.785C102.712 116.27 100.643 116.593 98.4123 115.876Z"
        ></path>
        <path d="M93.1833 123.091C98.5171 123.323 103.851 123.555 109.185 123.788C110.219 123.626 110.382 124.667 109.347 124.829C108.313 124.99 108.313 124.99 107.279 125.152C97.8083 125.566 89.3718 125.819 80.7726 125.031C71.3019 125.445 61.6685 124.819 52.1978 125.233C46.864 125.001 41.5302 124.768 35.3248 125.738C34.2906 125.9 33.9652 123.818 36.0337 123.495C55.1378 123.707 74.0792 122.878 93.1833 123.091Z"
        ></path>
        <path d="M54.0213 75.9013L55.2183 76.7804C55.2183 76.7804 55.381 77.8212 56.4152 77.6595C56.5779 78.7003 55.7064 79.9028 55.5437 78.862C54.3468 77.9829 54.3468 77.9829 53.1498 77.1038C52.9871 76.063 51.7902 75.1839 51.6275 74.1431C50.2678 72.2232 49.9424 70.1416 48.5828 68.2217C46.8977 64.2202 46.2469 60.057 46.6303 55.7321C46.4676 54.6914 47.5018 54.5297 47.6645 55.5705C48.3154 59.7336 48.9662 63.8968 49.4543 67.0192C49.7797 69.1008 51.1394 71.0207 52.3363 71.8998C52.8244 75.0222 54.0213 75.9013 54.0213 75.9013Z"
        ></path>
        <path d="M182.102 54.8122C182.811 52.5689 182.486 50.4874 182.16 48.4058C181.509 44.2426 180.859 40.0794 178.139 36.2396C173.735 28.3983 164.322 22.4062 156.432 19.3747C154.038 17.6165 151.807 16.8991 148.541 16.3433C145.276 15.7876 142.011 15.2318 139.78 14.5144C138.745 14.6761 139.617 13.4736 139.617 13.4736C142.72 12.9885 144.951 13.706 148.216 14.2617C151.481 14.8175 153.713 15.5349 156.978 16.0907C161.44 17.5256 166.065 20.0012 169.656 22.6386C177.872 27.7516 184.507 36.3103 185.1 46.8799C185.426 48.9615 184.879 52.2456 184.171 54.4889C184.333 55.5296 183.462 56.7321 182.59 57.9346C181.719 59.1371 180.847 60.3395 179.813 60.5012C180.847 60.3395 180.685 59.2987 181.556 58.0963C181.393 57.0555 182.265 55.853 182.102 54.8122Z"
        ></path>
        <path d="M132.052 12.5238C130.855 11.6447 130.855 11.6447 132.052 12.5238C130.855 11.6447 130.855 11.6447 131.727 10.4422L132.761 10.2805C133.795 10.1189 134.992 10.998 136.026 10.8363C137.223 11.7154 137.386 12.7562 136.352 12.9179C134.283 13.2412 133.086 12.3621 132.052 12.5238Z"
        ></path>
        <path d="M120.305 93.2612C126.836 94.3727 132.716 91.321 138.596 88.2693C140.501 86.9052 141.536 86.7435 142.732 87.6226C144.964 88.3401 146.161 89.2192 148.392 89.9366C150.786 91.6948 154.214 93.2914 157.642 94.8879C158.839 95.7671 161.07 96.4845 163.464 98.2427C164.661 99.1218 166.892 99.8393 168.089 100.718C169.286 101.597 168.251 101.759 167.217 101.921C163.952 101.365 161.395 98.5661 158.13 98.0103C154.702 96.4138 152.308 94.6555 148.88 93.059C146.649 92.3416 145.452 91.4624 144.255 90.5833C143.221 90.745 143.058 89.7042 142.024 89.8659C140.989 90.0276 139.955 90.1893 139.955 90.1893C137.015 91.7151 134.075 93.2409 130.101 94.9284C127.161 96.4543 123.024 97.101 119.596 95.5044C118.562 95.6661 119.271 93.4228 120.305 93.2612Z"
        ></path>
        <path d="M14.7565 116.159C15.3026 112.875 16.0114 110.632 17.7544 108.227C19.4974 105.822 22.2747 103.255 24.1804 101.891C26.9577 99.3243 30.9319 97.6368 34.0345 97.1517C36.9745 95.6259 40.9487 93.9384 44.0513 93.4533C48.0255 91.7658 52.1624 91.1191 56.2993 90.4724C58.3677 90.149 60.4362 89.8257 62.5046 89.5023C64.5731 89.179 66.6415 88.8556 68.8727 89.573C68.8727 89.573 68.8727 89.573 69.0354 90.6138C66.9669 90.9372 65.9327 91.0989 63.8643 91.4222C61.7958 91.7456 60.7616 91.9073 58.6932 92.2306C55.5905 92.7157 51.4536 93.3624 48.5136 94.8882C41.4368 97.0608 35.3942 99.0716 29.5143 102.123C26.5743 103.649 23.6343 105.175 21.8913 107.58C20.1483 109.985 18.4053 112.39 17.6964 114.633C16.4415 120.16 17.4178 126.405 20.2998 131.286C21.8221 134.246 24.3787 137.046 25.901 140.006C27.0979 140.885 28.4576 142.805 29.6545 143.684C30.8514 144.563 32.2111 146.483 33.408 147.362C33.5707 148.403 33.5707 148.403 32.5365 148.565C31.3395 147.686 30.1426 146.807 28.9457 145.928C27.7487 145.049 26.5518 144.169 25.1922 142.249C22.6356 139.45 21.276 137.531 19.7536 134.57C15.512 127.769 14.6985 122.565 14.7565 116.159Z"
        ></path>
        <path d="M117.085 11.6649C115.016 11.9883 113.982 12.15 111.914 12.4733C108.811 12.9584 105.708 13.4434 101.571 14.0901C95.3661 15.0602 88.2892 17.2327 82.4093 20.2844C80.3409 20.6078 79.4694 21.8102 77.5636 23.1744C75.6579 24.5385 74.7864 25.741 72.7179 26.0644C71.6837 26.2261 71.521 25.1853 71.3583 24.1445C72.2298 22.942 74.1356 21.5778 75.1698 21.4162C77.0755 20.052 79.144 19.7287 80.0155 18.5262C82.9554 17.0003 85.8954 15.4745 90.0323 14.8278C93.1349 14.3428 97.1091 12.6552 100.212 12.1702C103.314 11.6852 107.451 11.0384 110.554 10.5534C112.622 10.2301 114.691 9.90669 115.888 10.7858C117.956 10.4624 120.187 11.1799 121.384 12.059C120.187 11.1799 118.119 11.5032 117.085 11.6649Z"
        ></path>
        <path d="M65.8038 29.2777C65.8038 29.2777 64.7696 29.4394 65.8038 29.2777C64.7696 29.4394 64.7696 29.4394 65.8038 29.2777C64.6069 28.3986 65.4784 27.1961 65.6411 28.2369C65.6411 28.2369 65.6411 28.2369 66.6754 28.0752C66.5127 27.0345 67.5469 26.8728 67.5469 26.8728C67.7096 27.9136 67.8723 28.9544 66.8381 29.116C67.0008 30.1568 65.9665 30.3185 65.8038 29.2777Z"
        ></path>
    </symbol>

    <symbol xmlns="http://www.w3.org/2000/svg" viewBox="0 0 68 68" id="telegram">
        <path d="M33.9566 63.9774C50.4715 63.9774 63.8593 50.5895 63.8593 34.0747C63.8593 17.5599 50.4715 4.172 33.9566 4.172C17.4418 4.172 4.05396 17.5599 4.05396 34.0747C4.05396 50.5895 17.4418 63.9774 33.9566 63.9774Z"
              fill="#41B4E6" stroke="#ECEFF1" stroke-width="7"></path>
        <path d="M60.3601 34.0747C60.3601 33.4313 60.3358 32.7938 60.2906 32.1619L49.3479 21.2194L18.5662 33.3276L30.3434 45.105L30.4979 45.6611L30.6979 45.4594L30.6988 45.4603L30.4979 45.6611L43.5259 58.689C53.3775 54.8564 60.3601 45.2815 60.3601 34.0747Z"
              fill="#0091C8"></path>
        <path d="M31.3927 37.9214L43.3247 46.9301L49.3478 21.2194L18.5659 33.3276L27.9325 36.43L45.0267 24.9637L31.3927 37.9214Z"
              fill="white"></path>
        <path d="M27.9326 36.43L30.4979 45.6612L31.3929 37.9214L45.0268 24.9637L27.9326 36.43Z" fill="#D2D2D7"></path>
        <path d="M35.2707 40.8492L30.4978 45.6612L31.3927 37.9214L35.2707 40.8492Z" fill="#B9B9BE"></path>
    </symbol>

    <symbol xmlns="http://www.w3.org/2000/svg" viewBox="0 0 65 64" id="whatsapp">
        <g clip-path="url(#clip0_7_943)">
            <path d="M55.0544 9.93733C49.0455 4.18205 41.1391 0.931 32.7188 0.931C8.55157 0.931 -6.62344 26.8741 5.44436 47.5111L0.974609 63.6019L17.6703 59.288C24.9442 63.1815 30.9029 62.8368 32.7346 63.0666C60.7575 63.0666 74.707 29.475 55.0148 10.0392L55.0544 9.93733Z"
                  fill="#ECEFF1"></path>
            <path d="M32.7768 57.7291L32.7609 57.7265H32.7188C24.3327 57.7265 18.9748 53.7913 18.4477 53.5641L8.56473 56.1101L11.2134 46.592L10.5835 45.6127C7.97439 41.4973 6.58813 36.7578 6.58813 31.8774C6.58813 8.91631 34.9062 -2.56552 51.2935 13.6636C67.6413 29.723 56.1639 57.7291 32.7768 57.7291Z"
                  fill="#4CAF50"></path>
            <path d="M47.1136 38.2907L47.0899 38.4865C46.2966 38.0948 42.4331 36.2225 41.7136 35.964C40.098 35.3713 40.554 35.87 37.452 39.39C36.9908 39.8992 36.5323 39.9384 35.7495 39.5859C34.9589 39.1942 32.4209 38.3716 29.4165 35.7081C27.0762 33.6321 25.5055 31.0861 25.0416 30.3027C24.2694 28.9814 25.885 28.7934 27.3556 26.0359C27.6191 25.4875 27.4847 25.0567 27.2897 24.6676C27.092 24.2759 25.5186 20.4373 24.8598 18.9071C24.2273 17.3821 23.5763 17.5753 23.0887 17.5753C21.5707 17.4448 20.4612 17.4657 19.4834 18.4736C15.2298 23.106 16.3024 27.8847 19.942 32.9663C27.0947 42.2415 30.9055 43.9493 37.8737 46.3204C39.7554 46.9131 41.4711 46.8296 42.8284 46.6363C44.3411 46.3987 47.4852 44.7536 48.1415 42.9126C48.8135 41.0717 48.8135 39.5441 48.6159 39.1916C48.4208 38.839 47.9043 38.6432 47.1136 38.2907Z"
                  fill="#FAFAFA"></path>
        </g>
        <defs>
            <clipPath id="clip0_7_943">
                <rect width="63.2512" height="62.6709" fill="white" transform="translate(0.974609 0.931)"></rect>
            </clipPath>
        </defs>
    </symbol>


</svg>
